solid Default
  facet normal 6.848726e-03 3.792381e-02 9.992571e-01
    outer loop
      vertex 8.923530e+01 5.678578e+01 1.086889e+02
      vertex 7.214567e+01 5.678578e+01 1.088060e+02
      vertex 8.923530e+01 3.833800e+01 1.093891e+02
    endloop
  endfacet
  facet normal 6.749173e-03 3.783171e-02 9.992613e-01
    outer loop
      vertex 8.923530e+01 3.833800e+01 1.093891e+02
      vertex 7.214567e+01 5.678578e+01 1.088060e+02
      vertex 7.189351e+01 3.833800e+01 1.095062e+02
    endloop
  endfacet
  facet normal -2.013702e-03 3.795210e-02 9.992775e-01
    outer loop
      vertex 7.189351e+01 3.833800e+01 1.095062e+02
      vertex 7.214567e+01 5.678578e+01 1.088060e+02
      vertex 4.801777e+01 5.678578e+01 1.087574e+02
    endloop
  endfacet
  facet normal -1.754596e-02 1.786632e-02 9.996864e-01
    outer loop
      vertex 4.801823e+01 3.833800e+01 1.090871e+02
      vertex 7.189351e+01 3.833800e+01 1.095062e+02
      vertex 4.801777e+01 5.678578e+01 1.087574e+02
    endloop
  endfacet
  facet normal 6.832563e-03 -3.832644e-02 9.992419e-01
    outer loop
      vertex 8.923530e+01 -5.678578e+01 1.086884e+02
      vertex 8.923530e+01 -3.851931e+01 1.093891e+02
      vertex 7.210550e+01 -5.678578e+01 1.088056e+02
    endloop
  endfacet
  facet normal 6.676473e-03 -3.818028e-02 9.992486e-01
    outer loop
      vertex 8.923530e+01 -3.851931e+01 1.093891e+02
      vertex 7.170491e+01 -3.851931e+01 1.095062e+02
      vertex 7.210550e+01 -5.678578e+01 1.088056e+02
    endloop
  endfacet
  facet normal -1.767520e-02 -3.870841e-02 9.990942e-01
    outer loop
      vertex 4.801823e+01 -3.851931e+01 1.090871e+02
      vertex 7.210550e+01 -5.678578e+01 1.088056e+02
      vertex 7.170491e+01 -3.851931e+01 1.095062e+02
    endloop
  endfacet
  facet normal -2.018184e-03 -1.807353e-02 9.998346e-01
    outer loop
      vertex 4.801823e+01 -3.851931e+01 1.090871e+02
      vertex 4.801777e+01 -5.678578e+01 1.087569e+02
      vertex 7.210550e+01 -5.678578e+01 1.088056e+02
    endloop
  endfacet
  facet normal 1.106690e-18 -1.807362e-02 9.998367e-01
    outer loop
      vertex 4.801823e+01 -3.851931e+01 1.090871e+02
      vertex 2.771709e+01 -5.678578e+01 1.087569e+02
      vertex 4.801777e+01 -5.678578e+01 1.087569e+02
    endloop
  endfacet
  facet normal -3.080676e-17 5.031126e-01 8.642209e-01
    outer loop
      vertex 2.726072e+01 -3.851931e+01 1.090871e+02
      vertex 4.066498e+01 -2.045502e+01 9.857088e+01
      vertex 3.467555e+01 -2.045502e+01 9.857088e+01
    endloop
  endfacet
  facet normal 1.106690e-18 -1.807362e-02 9.998367e-01
    outer loop
      vertex 2.726072e+01 -3.851931e+01 1.090871e+02
      vertex -9.474813e+00 -5.678578e+01 1.087569e+02
      vertex 2.771709e+01 -5.678578e+01 1.087569e+02
    endloop
  endfacet
  facet normal 1.106690e-18 -1.807362e-02 9.998367e-01
    outer loop
      vertex 2.726072e+01 -3.851931e+01 1.090871e+02
      vertex -3.319261e+01 -3.851931e+01 1.090871e+02
      vertex -9.474813e+00 -5.678578e+01 1.087569e+02
    endloop
  endfacet
  facet normal 1.106690e-18 -1.807362e-02 9.998367e-01
    outer loop
      vertex -3.319261e+01 -3.851931e+01 1.090871e+02
      vertex -5.542986e+01 -5.678578e+01 1.087569e+02
      vertex -9.474813e+00 -5.678578e+01 1.087569e+02
    endloop
  endfacet
  facet normal 1.106690e-18 -1.807362e-02 9.998367e-01
    outer loop
      vertex -3.319261e+01 -3.851931e+01 1.090871e+02
      vertex -5.543012e+01 -3.851931e+01 1.090871e+02
      vertex -5.542986e+01 -5.678578e+01 1.087569e+02
    endloop
  endfacet
  facet normal -3.080676e-17 5.031126e-01 8.642209e-01
    outer loop
      vertex -3.319261e+01 -3.851931e+01 1.090871e+02
      vertex -4.740995e+01 -2.045502e+01 9.857088e+01
      vertex -5.543012e+01 -3.851931e+01 1.090871e+02
    endloop
  endfacet
  facet normal -3.080676e-17 5.031126e-01 8.642209e-01
    outer loop
      vertex -3.319261e+01 -3.851931e+01 1.090871e+02
      vertex -4.055004e+01 -2.045502e+01 9.857088e+01
      vertex -4.740995e+01 -2.045502e+01 9.857088e+01
    endloop
  endfacet
  facet normal 1.881898e-03 -1.807356e-02 9.998350e-01
    outer loop
      vertex -5.543012e+01 -3.851931e+01 1.090871e+02
      vertex -7.636970e+01 -5.678578e+01 1.087964e+02
      vertex -5.542986e+01 -5.678578e+01 1.087569e+02
    endloop
  endfacet
  facet normal 1.927438e-02 -3.799942e-02 9.990918e-01
    outer loop
      vertex -5.543012e+01 -3.851931e+01 1.090871e+02
      vertex -7.667416e+01 -3.851931e+01 1.094970e+02
      vertex -7.636970e+01 -5.678578e+01 1.087964e+02
    endloop
  endfacet
  facet normal -8.584970e-03 -3.846881e-02 9.992229e-01
    outer loop
      vertex -7.667416e+01 -3.851931e+01 1.094970e+02
      vertex -8.923530e+01 -3.851931e+01 1.093891e+02
      vertex -7.636970e+01 -5.678578e+01 1.087964e+02
    endloop
  endfacet
  facet normal -8.381867e-03 -3.832599e-02 9.992301e-01
    outer loop
      vertex -8.923530e+01 -5.678578e+01 1.086884e+02
      vertex -7.636970e+01 -5.678578e+01 1.087964e+02
      vertex -8.923530e+01 -3.851931e+01 1.093891e+02
    endloop
  endfacet
  facet normal -8.655604e-03 3.792327e-02 9.992431e-01
    outer loop
      vertex -8.923530e+01 5.678578e+01 1.086889e+02
      vertex -8.923530e+01 3.833800e+01 1.093891e+02
      vertex -7.677265e+01 5.678578e+01 1.087969e+02
    endloop
  endfacet
  facet normal -8.585164e-03 3.787576e-02 9.992456e-01
    outer loop
      vertex -7.667416e+01 3.833800e+01 1.094970e+02
      vertex -7.677265e+01 5.678578e+01 1.087969e+02
      vertex -8.923530e+01 3.833800e+01 1.093891e+02
    endloop
  endfacet
  facet normal 1.846869e-03 3.793271e-02 9.992785e-01
    outer loop
      vertex -7.667416e+01 3.833800e+01 1.094970e+02
      vertex -5.542986e+01 5.678578e+01 1.087574e+02
      vertex -7.677265e+01 5.678578e+01 1.087969e+02
    endloop
  endfacet
  facet normal 1.928523e-02 1.786591e-02 9.996544e-01
    outer loop
      vertex -5.543012e+01 3.833800e+01 1.090871e+02
      vertex -5.542986e+01 5.678578e+01 1.087574e+02
      vertex -7.667416e+01 3.833800e+01 1.094970e+02
    endloop
  endfacet
  facet normal 1.027724e-05 1.786951e-02 9.998403e-01
    outer loop
      vertex -5.543012e+01 3.833800e+01 1.090871e+02
      vertex -3.319261e+01 3.833800e+01 1.090869e+02
      vertex -5.542986e+01 5.678578e+01 1.087574e+02
    endloop
  endfacet
  facet normal 8.883292e-06 -5.031011e-01 8.642276e-01
    outer loop
      vertex -5.543012e+01 3.833800e+01 1.090871e+02
      vertex -4.055004e+01 2.027342e+01 9.857088e+01
      vertex -3.319261e+01 3.833800e+01 1.090869e+02
    endloop
  endfacet
  facet normal 3.080639e-17 -5.031065e-01 8.642244e-01
    outer loop
      vertex -5.543012e+01 3.833800e+01 1.090871e+02
      vertex -4.740995e+01 2.027342e+01 9.857088e+01
      vertex -4.055004e+01 2.027342e+01 9.857088e+01
    endloop
  endfacet
  facet normal -1.093433e-18 1.785712e-02 9.998405e-01
    outer loop
      vertex -3.319261e+01 3.833800e+01 1.090869e+02
      vertex 9.121139e+00 5.678578e+01 1.087574e+02
      vertex -5.542986e+01 5.678578e+01 1.087574e+02
    endloop
  endfacet
  facet normal -3.780440e-06 1.786579e-02 9.998404e-01
    outer loop
      vertex 2.726072e+01 3.833800e+01 1.090871e+02
      vertex 9.121139e+00 5.678578e+01 1.087574e+02
      vertex -3.319261e+01 3.833800e+01 1.090869e+02
    endloop
  endfacet
  facet normal -1.094192e-18 1.786951e-02 9.998403e-01
    outer loop
      vertex 2.726072e+01 3.833800e+01 1.090871e+02
      vertex 4.801777e+01 5.678578e+01 1.087574e+02
      vertex 9.121139e+00 5.678578e+01 1.087574e+02
    endloop
  endfacet
  facet normal -1.094192e-18 1.786951e-02 9.998403e-01
    outer loop
      vertex 2.726072e+01 3.833800e+01 1.090871e+02
      vertex 4.801823e+01 3.833800e+01 1.090871e+02
      vertex 4.801777e+01 5.678578e+01 1.087574e+02
    endloop
  endfacet
  facet normal 3.080639e-17 -5.031065e-01 8.642244e-01
    outer loop
      vertex 2.726072e+01 3.833800e+01 1.090871e+02
      vertex 3.467555e+01 2.027342e+01 9.857088e+01
      vertex 4.801823e+01 3.833800e+01 1.090871e+02
    endloop
  endfacet
  facet normal 3.080639e-17 -5.031065e-01 8.642244e-01
    outer loop
      vertex 4.801823e+01 3.833800e+01 1.090871e+02
      vertex 3.467555e+01 2.027342e+01 9.857088e+01
      vertex 4.066498e+01 2.027342e+01 9.857088e+01
    endloop
  endfacet
  facet normal -3.080676e-17 5.031126e-01 8.642209e-01
    outer loop
      vertex 4.801823e+01 -3.851931e+01 1.090871e+02
      vertex 4.066498e+01 -2.045502e+01 9.857088e+01
      vertex 2.726072e+01 -3.851931e+01 1.090871e+02
    endloop
  endfacet
  facet normal 1.106690e-18 -1.807362e-02 9.998367e-01
    outer loop
      vertex 4.801823e+01 -3.851931e+01 1.090871e+02
      vertex 2.726072e+01 -3.851931e+01 1.090871e+02
      vertex 2.771709e+01 -5.678578e+01 1.087569e+02
    endloop
  endfacet
  facet normal -1.000000e+00 -6.123234e-17 -7.498799e-33
    outer loop
      vertex -8.923530e+01 5.678578e+01 1.086889e+02
      vertex -8.923530e+01 5.678578e+01 7.756308e+01
      vertex -8.923530e+01 3.833800e+01 1.093891e+02
    endloop
  endfacet
  facet normal -1.000000e+00 -6.123234e-17 -7.498799e-33
    outer loop
      vertex -8.923530e+01 3.833800e+01 1.093891e+02
      vertex -8.923530e+01 5.678578e+01 7.756308e+01
      vertex -8.923530e+01 3.833800e+01 7.826321e+01
    endloop
  endfacet
  facet normal -9.873180e-01 -6.020735e-03 -1.586408e-01
    outer loop
      vertex -8.923530e+01 5.678578e+01 7.756308e+01
      vertex -7.677265e+01 5.678578e+01 4.244995e-04
      vertex -8.923530e+01 3.833800e+01 7.826321e+01
    endloop
  endfacet
  facet normal -9.873498e-01 -5.270988e-03 -1.584691e-01
    outer loop
      vertex -7.667416e+01 3.833800e+01 4.244995e-04
      vertex -8.923530e+01 3.833800e+01 7.826321e+01
      vertex -7.677265e+01 5.678578e+01 4.244995e-04
    endloop
  endfacet
  facet normal 0.000000e+00 1.224647e-16 -1.000000e+00
    outer loop
      vertex -5.543012e+01 3.833800e+01 4.244995e-04
      vertex -7.667416e+01 3.833800e+01 4.244995e-04
      vertex -7.677265e+01 5.678578e+01 4.244995e-04
    endloop
  endfacet
  facet normal 0.000000e+00 1.224647e-16 -1.000000e+00
    outer loop
      vertex -5.543012e+01 3.833800e+01 4.244995e-04
      vertex -7.677265e+01 5.678578e+01 4.244995e-04
      vertex -5.542986e+01 5.678578e+01 4.244995e-04
    endloop
  endfacet
  facet normal 0.000000e+00 1.224647e-16 -1.000000e+00
    outer loop
      vertex -5.543012e+01 3.833800e+01 4.244995e-04
      vertex -5.542986e+01 5.678578e+01 4.244995e-04
      vertex -3.319261e+01 3.833800e+01 4.244995e-04
    endloop
  endfacet
  facet normal 0.000000e+00 1.224647e-16 -1.000000e+00
    outer loop
      vertex -3.319261e+01 3.833800e+01 4.244995e-04
      vertex -5.542986e+01 5.678578e+01 4.244995e-04
      vertex 9.121139e+00 5.678578e+01 4.244995e-04
    endloop
  endfacet
  facet normal 0.000000e+00 1.224647e-16 -1.000000e+00
    outer loop
      vertex 2.726072e+01 3.833800e+01 4.244995e-04
      vertex -3.319261e+01 3.833800e+01 4.244995e-04
      vertex 9.121139e+00 5.678578e+01 4.244995e-04
    endloop
  endfacet
  facet normal 0.000000e+00 1.224647e-16 -1.000000e+00
    outer loop
      vertex 2.726072e+01 3.833800e+01 4.244995e-04
      vertex 9.121139e+00 5.678578e+01 4.244995e-04
      vertex 4.801777e+01 5.678578e+01 4.244995e-04
    endloop
  endfacet
  facet normal 0.000000e+00 1.224647e-16 -1.000000e+00
    outer loop
      vertex 2.726072e+01 3.833800e+01 4.244995e-04
      vertex 4.801777e+01 5.678578e+01 4.244995e-04
      vertex 4.851208e+01 3.833800e+01 4.244995e-04
    endloop
  endfacet
  facet normal 0.000000e+00 1.224647e-16 -1.000000e+00
    outer loop
      vertex 4.851208e+01 3.833800e+01 4.244995e-04
      vertex 4.801777e+01 5.678578e+01 4.244995e-04
      vertex 6.489776e+01 5.678578e+01 4.244995e-04
    endloop
  endfacet
  facet normal 0.000000e+00 1.224647e-16 -1.000000e+00
    outer loop
      vertex 4.851208e+01 3.833800e+01 4.244995e-04
      vertex 6.489776e+01 5.678578e+01 4.244995e-04
      vertex 6.461067e+01 3.833800e+01 4.244995e-04
    endloop
  endfacet
  facet normal 9.561414e-01 -1.487988e-02 -2.925274e-01
    outer loop
      vertex 8.923530e+01 5.678578e+01 7.954896e+01
      vertex 6.461067e+01 3.833800e+01 4.244995e-04
      vertex 6.489776e+01 5.678578e+01 4.244995e-04
    endloop
  endfacet
  facet normal 9.559447e-01 -1.113215e-02 -2.933356e-01
    outer loop
      vertex 8.923530e+01 5.678578e+01 7.954896e+01
      vertex 8.923530e+01 3.833800e+01 8.024905e+01
      vertex 6.461067e+01 3.833800e+01 4.244995e-04
    endloop
  endfacet
  facet normal -6.123234e-17 1.000000e+00 1.224647e-16
    outer loop
      vertex 8.923530e+01 5.678578e+01 1.086889e+02
      vertex 8.923530e+01 5.678578e+01 7.954896e+01
      vertex 6.489776e+01 5.678578e+01 4.244995e-04
    endloop
  endfacet
  facet normal -6.123234e-17 1.000000e+00 1.224647e-16
    outer loop
      vertex 8.923530e+01 5.678578e+01 1.086889e+02
      vertex 6.489776e+01 5.678578e+01 4.244995e-04
      vertex 7.214567e+01 5.678578e+01 1.088060e+02
    endloop
  endfacet
  facet normal -6.123234e-17 1.000000e+00 1.224647e-16
    outer loop
      vertex 4.801777e+01 5.678578e+01 1.087574e+02
      vertex 7.214567e+01 5.678578e+01 1.088060e+02
      vertex 6.489776e+01 5.678578e+01 4.244995e-04
    endloop
  endfacet
  facet normal -6.123234e-17 1.000000e+00 1.224647e-16
    outer loop
      vertex 4.801777e+01 5.678578e+01 1.087574e+02
      vertex 6.489776e+01 5.678578e+01 4.244995e-04
      vertex 4.801777e+01 5.678578e+01 4.244995e-04
    endloop
  endfacet
  facet normal -6.123234e-17 1.000000e+00 1.224647e-16
    outer loop
      vertex 4.801777e+01 5.678578e+01 1.087574e+02
      vertex 4.801777e+01 5.678578e+01 4.244995e-04
      vertex 9.121139e+00 5.678578e+01 4.244995e-04
    endloop
  endfacet
  facet normal -6.123234e-17 1.000000e+00 1.224647e-16
    outer loop
      vertex 9.121139e+00 5.678578e+01 1.087574e+02
      vertex 4.801777e+01 5.678578e+01 1.087574e+02
      vertex 9.121139e+00 5.678578e+01 4.244995e-04
    endloop
  endfacet
  facet normal -6.123234e-17 1.000000e+00 1.224647e-16
    outer loop
      vertex 9.121139e+00 5.678578e+01 1.087574e+02
      vertex 9.121139e+00 5.678578e+01 4.244995e-04
      vertex -5.542986e+01 5.678578e+01 4.244995e-04
    endloop
  endfacet
  facet normal -6.123234e-17 1.000000e+00 1.224647e-16
    outer loop
      vertex -5.542986e+01 5.678578e+01 1.087574e+02
      vertex 9.121139e+00 5.678578e+01 1.087574e+02
      vertex -5.542986e+01 5.678578e+01 4.244995e-04
    endloop
  endfacet
  facet normal -6.123234e-17 1.000000e+00 1.224647e-16
    outer loop
      vertex -5.542986e+01 5.678578e+01 1.087574e+02
      vertex -5.542986e+01 5.678578e+01 4.244995e-04
      vertex -7.677265e+01 5.678578e+01 4.244995e-04
    endloop
  endfacet
  facet normal -6.123234e-17 1.000000e+00 1.224647e-16
    outer loop
      vertex -5.542986e+01 5.678578e+01 1.087574e+02
      vertex -7.677265e+01 5.678578e+01 4.244995e-04
      vertex -7.677265e+01 5.678578e+01 1.087969e+02
    endloop
  endfacet
  facet normal -6.123234e-17 1.000000e+00 1.224647e-16
    outer loop
      vertex -7.677265e+01 5.678578e+01 1.087969e+02
      vertex -7.677265e+01 5.678578e+01 4.244995e-04
      vertex -8.923530e+01 5.678578e+01 7.756308e+01
    endloop
  endfacet
  facet normal -6.123234e-17 1.000000e+00 1.224647e-16
    outer loop
      vertex -8.923530e+01 5.678578e+01 1.086889e+02
      vertex -7.677265e+01 5.678578e+01 1.087969e+02
      vertex -8.923530e+01 5.678578e+01 7.756308e+01
    endloop
  endfacet
  facet normal 6.123234e-17 -1.000000e+00 -1.224647e-16
    outer loop
      vertex -7.667416e+01 3.833800e+01 1.094970e+02
      vertex -8.923530e+01 3.833800e+01 1.093891e+02
      vertex -8.923530e+01 3.833800e+01 7.826321e+01
    endloop
  endfacet
  facet normal -9.139717e-01 -4.057779e-01 -4.969346e-17
    outer loop
      vertex -5.543012e+01 3.833800e+01 1.090871e+02
      vertex -4.740995e+01 2.027342e+01 4.244995e-04
      vertex -4.740995e+01 2.027342e+01 9.857088e+01
    endloop
  endfacet
  facet normal 6.123234e-17 -1.000000e+00 -1.224647e-16
    outer loop
      vertex -4.740995e+01 2.027342e+01 9.857088e+01
      vertex -4.740995e+01 2.027342e+01 4.244995e-04
      vertex -4.055004e+01 2.027342e+01 4.244995e-04
    endloop
  endfacet
  facet normal 6.123234e-17 -1.000000e+00 -1.224647e-16
    outer loop
      vertex -4.740995e+01 2.027342e+01 9.857088e+01
      vertex -4.055004e+01 2.027342e+01 4.244995e-04
      vertex -4.055004e+01 2.027342e+01 9.857088e+01
    endloop
  endfacet
  facet normal 9.261321e-01 -3.771994e-01 -4.619361e-17
    outer loop
      vertex -4.055004e+01 2.027342e+01 9.857088e+01
      vertex -4.055004e+01 2.027342e+01 4.244995e-04
      vertex -3.319261e+01 3.833800e+01 4.244995e-04
    endloop
  endfacet
  facet normal 9.261321e-01 -3.771994e-01 -4.619361e-17
    outer loop
      vertex -4.055004e+01 2.027342e+01 9.857088e+01
      vertex -3.319261e+01 3.833800e+01 4.244995e-04
      vertex -3.319261e+01 3.833800e+01 1.090869e+02
    endloop
  endfacet
  facet normal 0.000000e+00 1.224647e-16 -1.000000e+00
    outer loop
      vertex -4.740995e+01 2.027342e+01 4.244995e-04
      vertex -3.319261e+01 3.833800e+01 4.244995e-04
      vertex -4.055004e+01 2.027342e+01 4.244995e-04
    endloop
  endfacet
  facet normal 0.000000e+00 1.224647e-16 -1.000000e+00
    outer loop
      vertex -5.543012e+01 3.833800e+01 4.244995e-04
      vertex -3.319261e+01 3.833800e+01 4.244995e-04
      vertex -4.740995e+01 2.027342e+01 4.244995e-04
    endloop
  endfacet
  facet normal 6.123234e-17 -1.000000e+00 -1.224647e-16
    outer loop
      vertex -3.319261e+01 3.833800e+01 1.090869e+02
      vertex -3.319261e+01 3.833800e+01 4.244995e-04
      vertex 2.726072e+01 3.833800e+01 4.244995e-04
    endloop
  endfacet
  facet normal 6.123234e-17 -1.000000e+00 -1.224647e-16
    outer loop
      vertex 2.726072e+01 3.833800e+01 1.090871e+02
      vertex -3.319261e+01 3.833800e+01 1.090869e+02
      vertex 2.726072e+01 3.833800e+01 4.244995e-04
    endloop
  endfacet
  facet normal -9.251017e-01 -3.797196e-01 -4.650223e-17
    outer loop
      vertex 2.726072e+01 3.833800e+01 1.090871e+02
      vertex 2.726072e+01 3.833800e+01 4.244995e-04
      vertex 3.467555e+01 2.027342e+01 9.857088e+01
    endloop
  endfacet
  facet normal -9.251017e-01 -3.797196e-01 -4.650223e-17
    outer loop
      vertex 3.467555e+01 2.027342e+01 9.857088e+01
      vertex 2.726072e+01 3.833800e+01 4.244995e-04
      vertex 3.467555e+01 2.027342e+01 4.244995e-04
    endloop
  endfacet
  facet normal 6.123234e-17 -1.000000e+00 -1.224647e-16
    outer loop
      vertex 3.467555e+01 2.027342e+01 9.857088e+01
      vertex 3.467555e+01 2.027342e+01 4.244995e-04
      vertex 4.066498e+01 2.027342e+01 9.857088e+01
    endloop
  endfacet
  facet normal 6.123234e-17 -1.000000e+00 -1.224647e-16
    outer loop
      vertex 4.066498e+01 2.027342e+01 9.857088e+01
      vertex 3.467555e+01 2.027342e+01 4.244995e-04
      vertex 4.066498e+01 2.027342e+01 4.244995e-04
    endloop
  endfacet
  facet normal 9.262069e-01 -3.770156e-01 -4.617110e-17
    outer loop
      vertex 4.801823e+01 3.833800e+01 1.090871e+02
      vertex 4.066498e+01 2.027342e+01 9.857088e+01
      vertex 4.066498e+01 2.027342e+01 4.244995e-04
    endloop
  endfacet
  facet normal 0.000000e+00 1.224647e-16 -1.000000e+00
    outer loop
      vertex 2.726072e+01 3.833800e+01 4.244995e-04
      vertex 4.851208e+01 3.833800e+01 4.244995e-04
      vertex 4.066498e+01 2.027342e+01 4.244995e-04
    endloop
  endfacet
  facet normal 0.000000e+00 1.224647e-16 -1.000000e+00
    outer loop
      vertex 2.726072e+01 3.833800e+01 4.244995e-04
      vertex 4.066498e+01 2.027342e+01 4.244995e-04
      vertex 3.467555e+01 2.027342e+01 4.244995e-04
    endloop
  endfacet
  facet normal 6.123234e-17 -1.000000e+00 -1.224647e-16
    outer loop
      vertex 8.923530e+01 3.833800e+01 1.093891e+02
      vertex 7.189351e+01 3.833800e+01 1.095062e+02
      vertex 8.923530e+01 3.833800e+01 8.024905e+01
    endloop
  endfacet
  facet normal 1.000000e+00 6.123234e-17 7.498799e-33
    outer loop
      vertex 8.923530e+01 5.678578e+01 1.086889e+02
      vertex 8.923530e+01 3.833800e+01 1.093891e+02
      vertex 8.923530e+01 3.833800e+01 8.024905e+01
    endloop
  endfacet
  facet normal 1.000000e+00 6.123234e-17 7.498799e-33
    outer loop
      vertex 8.923530e+01 5.678578e+01 1.086889e+02
      vertex 8.923530e+01 3.833800e+01 8.024905e+01
      vertex 8.923530e+01 5.678578e+01 7.954896e+01
    endloop
  endfacet
  facet normal 1.000000e+00 6.123234e-17 7.498799e-33
    outer loop
      vertex 8.923530e+01 -5.678578e+01 1.086884e+02
      vertex 8.923530e+01 -5.678578e+01 7.954843e+01
      vertex 8.923530e+01 -3.851931e+01 1.093891e+02
    endloop
  endfacet
  facet normal 1.000000e+00 6.123234e-17 7.498799e-33
    outer loop
      vertex 8.923530e+01 -3.851931e+01 1.093891e+02
      vertex 8.923530e+01 -5.678578e+01 7.954843e+01
      vertex 8.923530e+01 -3.851931e+01 8.024905e+01
    endloop
  endfacet
  facet normal 9.549611e-01 1.137292e-02 -2.965131e-01
    outer loop
      vertex 8.923530e+01 -5.678578e+01 7.954843e+01
      vertex 6.453583e+01 -5.678578e+01 4.244995e-04
      vertex 8.923530e+01 -3.851931e+01 8.024905e+01
    endloop
  endfacet
  facet normal 9.559966e-01 -3.916968e-03 -2.933516e-01
    outer loop
      vertex 8.923530e+01 -3.851931e+01 8.024905e+01
      vertex 6.453583e+01 -5.678578e+01 4.244995e-04
      vertex 6.461067e+01 -3.851931e+01 4.244995e-04
    endloop
  endfacet
  facet normal 0.000000e+00 1.224647e-16 -1.000000e+00
    outer loop
      vertex 6.461067e+01 -3.851931e+01 4.244995e-04
      vertex 6.453583e+01 -5.678578e+01 4.244995e-04
      vertex 4.801777e+01 -5.678578e+01 4.244995e-04
    endloop
  endfacet
  facet normal 0.000000e+00 1.224647e-16 -1.000000e+00
    outer loop
      vertex 4.801823e+01 -3.851931e+01 4.244995e-04
      vertex 6.461067e+01 -3.851931e+01 4.244995e-04
      vertex 4.801777e+01 -5.678578e+01 4.244995e-04
    endloop
  endfacet
  facet normal 0.000000e+00 1.224647e-16 -1.000000e+00
    outer loop
      vertex 4.801823e+01 -3.851931e+01 4.244995e-04
      vertex 4.801777e+01 -5.678578e+01 4.244995e-04
      vertex 2.771709e+01 -5.678578e+01 4.244995e-04
    endloop
  endfacet
  facet normal 0.000000e+00 1.224647e-16 -1.000000e+00
    outer loop
      vertex 4.801823e+01 -3.851931e+01 4.244995e-04
      vertex 2.771709e+01 -5.678578e+01 4.244995e-04
      vertex 2.726072e+01 -3.851931e+01 4.244995e-04
    endloop
  endfacet
  facet normal 0.000000e+00 1.224647e-16 -1.000000e+00
    outer loop
      vertex 2.726072e+01 -3.851931e+01 4.244995e-04
      vertex 2.771709e+01 -5.678578e+01 4.244995e-04
      vertex -9.474943e+00 -5.678578e+01 4.244995e-04
    endloop
  endfacet
  facet normal 0.000000e+00 1.224647e-16 -1.000000e+00
    outer loop
      vertex 2.726072e+01 -3.851931e+01 4.244995e-04
      vertex -9.474943e+00 -5.678578e+01 4.244995e-04
      vertex -3.319261e+01 -3.851931e+01 4.244995e-04
    endloop
  endfacet
  facet normal 0.000000e+00 1.224647e-16 -1.000000e+00
    outer loop
      vertex -3.319261e+01 -3.851931e+01 4.244995e-04
      vertex -9.474943e+00 -5.678578e+01 4.244995e-04
      vertex -5.542986e+01 -5.678578e+01 4.244995e-04
    endloop
  endfacet
  facet normal 0.000000e+00 1.224647e-16 -1.000000e+00
    outer loop
      vertex -3.319261e+01 -3.851931e+01 4.244995e-04
      vertex -5.542986e+01 -5.678578e+01 4.244995e-04
      vertex -5.543012e+01 -3.851931e+01 4.244995e-04
    endloop
  endfacet
  facet normal 0.000000e+00 1.224647e-16 -1.000000e+00
    outer loop
      vertex -5.543012e+01 -3.851931e+01 4.244995e-04
      vertex -5.542986e+01 -5.678578e+01 4.244995e-04
      vertex -7.636970e+01 -5.678578e+01 4.244995e-04
    endloop
  endfacet
  facet normal 0.000000e+00 1.224647e-16 -1.000000e+00
    outer loop
      vertex -5.543012e+01 -3.851931e+01 4.244995e-04
      vertex -7.636970e+01 -5.678578e+01 4.244995e-04
      vertex -7.667416e+01 -3.851931e+01 4.244995e-04
    endloop
  endfacet
  facet normal -9.863870e-01 -1.644102e-02 -1.636166e-01
    outer loop
      vertex -8.923530e+01 -5.678578e+01 7.756259e+01
      vertex -7.667416e+01 -3.851931e+01 4.244995e-04
      vertex -7.636970e+01 -5.678578e+01 4.244995e-04
    endloop
  endfacet
  facet normal -9.873453e-01 6.078138e-03 -1.584684e-01
    outer loop
      vertex -8.923530e+01 -5.678578e+01 7.756259e+01
      vertex -8.923530e+01 -3.851931e+01 7.826321e+01
      vertex -7.667416e+01 -3.851931e+01 4.244995e-04
    endloop
  endfacet
  facet normal -1.000000e+00 -6.123234e-17 -7.498799e-33
    outer loop
      vertex -8.923530e+01 -5.678578e+01 1.086884e+02
      vertex -8.923530e+01 -3.851931e+01 7.826321e+01
      vertex -8.923530e+01 -5.678578e+01 7.756259e+01
    endloop
  endfacet
  facet normal -1.000000e+00 -6.123234e-17 -7.498799e-33
    outer loop
      vertex -8.923530e+01 -5.678578e+01 1.086884e+02
      vertex -8.923530e+01 -3.851931e+01 1.093891e+02
      vertex -8.923530e+01 -3.851931e+01 7.826321e+01
    endloop
  endfacet
  facet normal -6.123234e-17 1.000000e+00 1.224647e-16
    outer loop
      vertex -7.667416e+01 -3.851931e+01 1.094970e+02
      vertex -8.923530e+01 -3.851931e+01 7.826321e+01
      vertex -8.923530e+01 -3.851931e+01 1.093891e+02
    endloop
  endfacet
  facet normal -9.139693e-01 4.057834e-01 4.969414e-17
    outer loop
      vertex -5.543012e+01 -3.851931e+01 1.090871e+02
      vertex -4.740995e+01 -2.045502e+01 9.857088e+01
      vertex -4.740995e+01 -2.045502e+01 4.244995e-04
    endloop
  endfacet
  facet normal -6.123234e-17 1.000000e+00 1.224647e-16
    outer loop
      vertex -4.740995e+01 -2.045502e+01 9.857088e+01
      vertex -4.055004e+01 -2.045502e+01 9.857088e+01
      vertex -4.740995e+01 -2.045502e+01 4.244995e-04
    endloop
  endfacet
  facet normal -6.123234e-17 1.000000e+00 1.224647e-16
    outer loop
      vertex -4.055004e+01 -2.045502e+01 9.857088e+01
      vertex -4.054991e+01 -2.045502e+01 4.244995e-04
      vertex -4.740995e+01 -2.045502e+01 4.244995e-04
    endloop
  endfacet
  facet normal 9.261296e-01 3.772053e-01 1.227210e-06
    outer loop
      vertex -3.319261e+01 -3.851931e+01 1.090871e+02
      vertex -4.054991e+01 -2.045502e+01 4.244995e-04
      vertex -4.055004e+01 -2.045502e+01 9.857088e+01
    endloop
  endfacet
  facet normal 9.261322e-01 3.771989e-01 4.619355e-17
    outer loop
      vertex -3.319261e+01 -3.851931e+01 1.090871e+02
      vertex -3.319261e+01 -3.851931e+01 4.244995e-04
      vertex -4.054991e+01 -2.045502e+01 4.244995e-04
    endloop
  endfacet
  facet normal 0.000000e+00 1.224647e-16 -1.000000e+00
    outer loop
      vertex -3.319261e+01 -3.851931e+01 4.244995e-04
      vertex -4.740995e+01 -2.045502e+01 4.244995e-04
      vertex -4.054991e+01 -2.045502e+01 4.244995e-04
    endloop
  endfacet
  facet normal 0.000000e+00 1.224647e-16 -1.000000e+00
    outer loop
      vertex -3.319261e+01 -3.851931e+01 4.244995e-04
      vertex -5.543012e+01 -3.851931e+01 4.244995e-04
      vertex -4.740995e+01 -2.045502e+01 4.244995e-04
    endloop
  endfacet
  facet normal -6.123234e-17 1.000000e+00 1.224647e-16
    outer loop
      vertex 2.726072e+01 -3.851931e+01 1.090871e+02
      vertex -3.319261e+01 -3.851931e+01 4.244995e-04
      vertex -3.319261e+01 -3.851931e+01 1.090871e+02
    endloop
  endfacet
  facet normal -6.123234e-17 1.000000e+00 1.224647e-16
    outer loop
      vertex 2.726072e+01 -3.851931e+01 1.090871e+02
      vertex 2.726072e+01 -3.851931e+01 4.244995e-04
      vertex -3.319261e+01 -3.851931e+01 4.244995e-04
    endloop
  endfacet
  facet normal -9.250995e-01 3.797248e-01 4.650288e-17
    outer loop
      vertex 2.726072e+01 -3.851931e+01 1.090871e+02
      vertex 3.467555e+01 -2.045502e+01 4.244995e-04
      vertex 2.726072e+01 -3.851931e+01 4.244995e-04
    endloop
  endfacet
  facet normal -9.250995e-01 3.797248e-01 4.650288e-17
    outer loop
      vertex 2.726072e+01 -3.851931e+01 1.090871e+02
      vertex 3.467555e+01 -2.045502e+01 9.857088e+01
      vertex 3.467555e+01 -2.045502e+01 4.244995e-04
    endloop
  endfacet
  facet normal -6.123234e-17 1.000000e+00 1.224647e-16
    outer loop
      vertex 3.467555e+01 -2.045502e+01 9.857088e+01
      vertex 4.066498e+01 -2.045502e+01 9.857088e+01
      vertex 3.467555e+01 -2.045502e+01 4.244995e-04
    endloop
  endfacet
  facet normal -6.123234e-17 1.000000e+00 1.224647e-16
    outer loop
      vertex 4.066498e+01 -2.045502e+01 9.857088e+01
      vertex 4.066498e+01 -2.045502e+01 4.244995e-04
      vertex 3.467555e+01 -2.045502e+01 4.244995e-04
    endloop
  endfacet
  facet normal 9.262047e-01 3.770208e-01 4.617174e-17
    outer loop
      vertex 4.801823e+01 -3.851931e+01 1.090871e+02
      vertex 4.066498e+01 -2.045502e+01 4.244995e-04
      vertex 4.066498e+01 -2.045502e+01 9.857088e+01
    endloop
  endfacet
  facet normal 0.000000e+00 1.224647e-16 -1.000000e+00
    outer loop
      vertex 4.801823e+01 -3.851931e+01 4.244995e-04
      vertex 3.467555e+01 -2.045502e+01 4.244995e-04
      vertex 4.066498e+01 -2.045502e+01 4.244995e-04
    endloop
  endfacet
  facet normal 0.000000e+00 1.224647e-16 -1.000000e+00
    outer loop
      vertex 4.801823e+01 -3.851931e+01 4.244995e-04
      vertex 2.726072e+01 -3.851931e+01 4.244995e-04
      vertex 3.467555e+01 -2.045502e+01 4.244995e-04
    endloop
  endfacet
  facet normal -6.123234e-17 1.000000e+00 1.224647e-16
    outer loop
      vertex 8.923530e+01 -3.851931e+01 1.093891e+02
      vertex 8.923530e+01 -3.851931e+01 8.024905e+01
      vertex 7.170491e+01 -3.851931e+01 1.095062e+02
    endloop
  endfacet
  facet normal 6.123234e-17 -1.000000e+00 -1.224647e-16
    outer loop
      vertex 8.923530e+01 -5.678578e+01 1.086884e+02
      vertex 7.210550e+01 -5.678578e+01 1.088056e+02
      vertex 8.923530e+01 -5.678578e+01 7.954843e+01
    endloop
  endfacet
  facet normal 6.123234e-17 -1.000000e+00 -1.224647e-16
    outer loop
      vertex 7.210550e+01 -5.678578e+01 1.088056e+02
      vertex 6.453583e+01 -5.678578e+01 4.244995e-04
      vertex 8.923530e+01 -5.678578e+01 7.954843e+01
    endloop
  endfacet
  facet normal 6.123234e-17 -1.000000e+00 -1.224647e-16
    outer loop
      vertex 4.801777e+01 -5.678578e+01 1.087569e+02
      vertex 6.453583e+01 -5.678578e+01 4.244995e-04
      vertex 7.210550e+01 -5.678578e+01 1.088056e+02
    endloop
  endfacet
  facet normal 6.123234e-17 -1.000000e+00 -1.224647e-16
    outer loop
      vertex 4.801777e+01 -5.678578e+01 1.087569e+02
      vertex 4.801777e+01 -5.678578e+01 4.244995e-04
      vertex 6.453583e+01 -5.678578e+01 4.244995e-04
    endloop
  endfacet
  facet normal 6.123234e-17 -1.000000e+00 -1.224647e-16
    outer loop
      vertex 2.771709e+01 -5.678578e+01 1.087569e+02
      vertex 4.801777e+01 -5.678578e+01 4.244995e-04
      vertex 4.801777e+01 -5.678578e+01 1.087569e+02
    endloop
  endfacet
  facet normal 6.123234e-17 -1.000000e+00 -1.224647e-16
    outer loop
      vertex 2.771709e+01 -5.678578e+01 1.087569e+02
      vertex 2.771709e+01 -5.678578e+01 4.244995e-04
      vertex 4.801777e+01 -5.678578e+01 4.244995e-04
    endloop
  endfacet
  facet normal 6.123234e-17 -1.000000e+00 -1.224647e-16
    outer loop
      vertex -9.474813e+00 -5.678578e+01 1.087569e+02
      vertex 2.771709e+01 -5.678578e+01 4.244995e-04
      vertex 2.771709e+01 -5.678578e+01 1.087569e+02
    endloop
  endfacet
  facet normal 6.123234e-17 -1.000000e+00 -1.224647e-16
    outer loop
      vertex -9.474813e+00 -5.678578e+01 1.087569e+02
      vertex -9.474943e+00 -5.678578e+01 4.244995e-04
      vertex 2.771709e+01 -5.678578e+01 4.244995e-04
    endloop
  endfacet
  facet normal 6.123234e-17 -1.000000e+00 -1.224647e-16
    outer loop
      vertex -9.474813e+00 -5.678578e+01 1.087569e+02
      vertex -5.542986e+01 -5.678578e+01 1.087569e+02
      vertex -9.474943e+00 -5.678578e+01 4.244995e-04
    endloop
  endfacet
  facet normal 6.123234e-17 -1.000000e+00 -1.224647e-16
    outer loop
      vertex -5.542986e+01 -5.678578e+01 1.087569e+02
      vertex -5.542986e+01 -5.678578e+01 4.244995e-04
      vertex -9.474943e+00 -5.678578e+01 4.244995e-04
    endloop
  endfacet
  facet normal 6.123234e-17 -1.000000e+00 -1.224647e-16
    outer loop
      vertex -5.542986e+01 -5.678578e+01 1.087569e+02
      vertex -7.636970e+01 -5.678578e+01 1.087964e+02
      vertex -5.542986e+01 -5.678578e+01 4.244995e-04
    endloop
  endfacet
  facet normal 6.123234e-17 -1.000000e+00 -1.224647e-16
    outer loop
      vertex -7.636970e+01 -5.678578e+01 1.087964e+02
      vertex -7.636970e+01 -5.678578e+01 4.244995e-04
      vertex -5.542986e+01 -5.678578e+01 4.244995e-04
    endloop
  endfacet
  facet normal 6.123234e-17 -1.000000e+00 -1.224647e-16
    outer loop
      vertex -7.636970e+01 -5.678578e+01 1.087964e+02
      vertex -8.923530e+01 -5.678578e+01 7.756259e+01
      vertex -7.636970e+01 -5.678578e+01 4.244995e-04
    endloop
  endfacet
  facet normal 6.123234e-17 -1.000000e+00 -1.224647e-16
    outer loop
      vertex -8.923530e+01 -5.678578e+01 1.086884e+02
      vertex -8.923530e+01 -5.678578e+01 7.756259e+01
      vertex -7.636970e+01 -5.678578e+01 1.087964e+02
    endloop
  endfacet
  facet normal -9.139717e-01 -4.057779e-01 -4.969346e-17
    outer loop
      vertex -5.543012e+01 3.833800e+01 1.090871e+02
      vertex -5.543012e+01 3.833800e+01 2.354042e+01
      vertex -4.740995e+01 2.027342e+01 4.244995e-04
    endloop
  endfacet
  facet normal -9.139717e-01 -4.057779e-01 -4.969346e-17
    outer loop
      vertex -5.543012e+01 3.833800e+01 2.354042e+01
      vertex -5.543012e+01 3.833800e+01 4.244995e-04
      vertex -4.740995e+01 2.027342e+01 4.244995e-04
    endloop
  endfacet
  facet normal 6.123234e-17 -1.000000e+00 -1.224647e-16
    outer loop
      vertex -7.667416e+01 3.833800e+01 4.244995e-04
      vertex -7.667416e+01 3.833800e+01 2.354042e+01
      vertex -8.923530e+01 3.833800e+01 7.826321e+01
    endloop
  endfacet
  facet normal 6.123234e-17 -1.000000e+00 -1.224647e-16
    outer loop
      vertex -7.667416e+01 3.833800e+01 2.354042e+01
      vertex -7.667416e+01 3.833800e+01 1.094970e+02
      vertex -8.923530e+01 3.833800e+01 7.826321e+01
    endloop
  endfacet
  facet normal 6.123234e-17 -1.000000e+00 -1.224647e-16
    outer loop
      vertex -7.667416e+01 3.833800e+01 1.094970e+02
      vertex -7.667416e+01 3.833800e+01 2.354042e+01
      vertex -5.543012e+01 3.833800e+01 1.090871e+02
    endloop
  endfacet
  facet normal 6.123234e-17 -1.000000e+00 -1.224647e-16
    outer loop
      vertex -5.543012e+01 3.833800e+01 1.090871e+02
      vertex -7.667416e+01 3.833800e+01 2.354042e+01
      vertex -5.543012e+01 3.833800e+01 2.354042e+01
    endloop
  endfacet
  facet normal -9.139693e-01 4.057834e-01 4.969414e-17
    outer loop
      vertex -5.543012e+01 -3.851931e+01 4.244995e-04
      vertex -5.543012e+01 -3.851931e+01 2.354042e+01
      vertex -4.740995e+01 -2.045502e+01 4.244995e-04
    endloop
  endfacet
  facet normal -9.139693e-01 4.057834e-01 4.969414e-17
    outer loop
      vertex -5.543012e+01 -3.851931e+01 2.354042e+01
      vertex -5.543012e+01 -3.851931e+01 1.090871e+02
      vertex -4.740995e+01 -2.045502e+01 4.244995e-04
    endloop
  endfacet
  facet normal -6.123234e-17 1.000000e+00 1.224647e-16
    outer loop
      vertex -7.667416e+01 -3.851931e+01 1.094970e+02
      vertex -7.667416e+01 -3.851931e+01 2.354042e+01
      vertex -8.923530e+01 -3.851931e+01 7.826321e+01
    endloop
  endfacet
  facet normal -6.123234e-17 1.000000e+00 1.224647e-16
    outer loop
      vertex -7.667416e+01 -3.851931e+01 2.354042e+01
      vertex -7.667416e+01 -3.851931e+01 4.244995e-04
      vertex -8.923530e+01 -3.851931e+01 7.826321e+01
    endloop
  endfacet
  facet normal -6.123234e-17 1.000000e+00 1.224647e-16
    outer loop
      vertex -7.667416e+01 -3.851931e+01 2.354042e+01
      vertex -7.667416e+01 -3.851931e+01 1.094970e+02
      vertex -5.543012e+01 -3.851931e+01 1.090871e+02
    endloop
  endfacet
  facet normal -6.123234e-17 1.000000e+00 1.224647e-16
    outer loop
      vertex -5.543012e+01 -3.851931e+01 1.090871e+02
      vertex -5.543012e+01 -3.851931e+01 2.354042e+01
      vertex -7.667416e+01 -3.851931e+01 2.354042e+01
    endloop
  endfacet
  facet normal -1.000000e+00 -6.123234e-17 -7.498799e-33
    outer loop
      vertex -7.667416e+01 3.833800e+01 4.244995e-04
      vertex -7.667416e+01 -3.851931e+01 2.354042e+01
      vertex -7.667416e+01 3.833800e+01 2.354042e+01
    endloop
  endfacet
  facet normal -1.000000e+00 -6.123234e-17 -7.498799e-33
    outer loop
      vertex -7.667416e+01 3.833800e+01 4.244995e-04
      vertex -7.667416e+01 -3.851931e+01 4.244995e-04
      vertex -7.667416e+01 -3.851931e+01 2.354042e+01
    endloop
  endfacet
  facet normal 0.000000e+00 -1.224647e-16 1.000000e+00
    outer loop
      vertex -5.543012e+01 3.833800e+01 2.354042e+01
      vertex -7.667416e+01 3.833800e+01 2.354042e+01
      vertex -6.446229e+01 1.912368e+01 2.354042e+01
    endloop
  endfacet
  facet normal 0.000000e+00 -1.224647e-16 1.000000e+00
    outer loop
      vertex -7.667416e+01 3.833800e+01 2.354042e+01
      vertex -6.758413e+01 -9.063881e-02 2.354042e+01
      vertex -6.446229e+01 1.912368e+01 2.354042e+01
    endloop
  endfacet
  facet normal 0.000000e+00 -1.224647e-16 1.000000e+00
    outer loop
      vertex -7.667416e+01 3.833800e+01 2.354042e+01
      vertex -7.667416e+01 -3.851931e+01 2.354042e+01
      vertex -6.758413e+01 -9.063881e-02 2.354042e+01
    endloop
  endfacet
  facet normal 0.000000e+00 -1.224647e-16 1.000000e+00
    outer loop
      vertex -7.667416e+01 -3.851931e+01 2.354042e+01
      vertex -6.446229e+01 -1.930496e+01 2.354042e+01
      vertex -6.758413e+01 -9.063881e-02 2.354042e+01
    endloop
  endfacet
  facet normal 0.000000e+00 -1.224647e-16 1.000000e+00
    outer loop
      vertex -5.543012e+01 -3.851931e+01 2.354042e+01
      vertex -6.446229e+01 -1.930496e+01 2.354042e+01
      vertex -7.667416e+01 -3.851931e+01 2.354042e+01
    endloop
  endfacet
  facet normal 9.049975e-01 -4.254169e-01 -5.209854e-17
    outer loop
      vertex -5.543012e+01 3.833800e+01 4.244995e-04
      vertex -5.543012e+01 3.833800e+01 2.354042e+01
      vertex -6.446229e+01 1.912368e+01 4.244995e-04
    endloop
  endfacet
  facet normal 9.049975e-01 -4.254169e-01 -5.209854e-17
    outer loop
      vertex -5.543012e+01 3.833800e+01 2.354042e+01
      vertex -6.446229e+01 1.912368e+01 2.354042e+01
      vertex -6.446229e+01 1.912368e+01 4.244995e-04
    endloop
  endfacet
  facet normal 9.870567e-01 -1.603715e-01 -1.963984e-17
    outer loop
      vertex -6.758413e+01 -9.063881e-02 4.244995e-04
      vertex -6.446229e+01 1.912368e+01 4.244995e-04
      vertex -6.446229e+01 1.912368e+01 2.354042e+01
    endloop
  endfacet
  facet normal 9.870567e-01 -1.603715e-01 -1.963984e-17
    outer loop
      vertex -6.758413e+01 -9.063881e-02 4.244995e-04
      vertex -6.446229e+01 1.912368e+01 2.354042e+01
      vertex -6.758413e+01 -9.063881e-02 2.354042e+01
    endloop
  endfacet
  facet normal 9.870567e-01 1.603715e-01 1.963984e-17
    outer loop
      vertex -6.758413e+01 -9.063881e-02 4.244995e-04
      vertex -6.758413e+01 -9.063881e-02 2.354042e+01
      vertex -6.446229e+01 -1.930496e+01 4.244995e-04
    endloop
  endfacet
  facet normal 9.870567e-01 1.603715e-01 1.963984e-17
    outer loop
      vertex -6.446229e+01 -1.930496e+01 4.244995e-04
      vertex -6.758413e+01 -9.063881e-02 2.354042e+01
      vertex -6.446229e+01 -1.930496e+01 2.354042e+01
    endloop
  endfacet
  facet normal 9.049978e-01 4.254163e-01 5.209847e-17
    outer loop
      vertex -5.543012e+01 -3.851931e+01 4.244995e-04
      vertex -6.446229e+01 -1.930496e+01 4.244995e-04
      vertex -6.446229e+01 -1.930496e+01 2.354042e+01
    endloop
  endfacet
  facet normal 9.049978e-01 4.254163e-01 5.209847e-17
    outer loop
      vertex -5.543012e+01 -3.851931e+01 4.244995e-04
      vertex -6.446229e+01 -1.930496e+01 2.354042e+01
      vertex -5.543012e+01 -3.851931e+01 2.354042e+01
    endloop
  endfacet
  facet normal 0.000000e+00 1.224647e-16 -1.000000e+00
    outer loop
      vertex -5.543012e+01 -3.851931e+01 4.244995e-04
      vertex -7.667416e+01 -3.851931e+01 4.244995e-04
      vertex -6.446229e+01 -1.930496e+01 4.244995e-04
    endloop
  endfacet
  facet normal 0.000000e+00 1.224647e-16 -1.000000e+00
    outer loop
      vertex -7.667416e+01 -3.851931e+01 4.244995e-04
      vertex -6.758413e+01 -9.063881e-02 4.244995e-04
      vertex -6.446229e+01 -1.930496e+01 4.244995e-04
    endloop
  endfacet
  facet normal 0.000000e+00 1.224647e-16 -1.000000e+00
    outer loop
      vertex -7.667416e+01 3.833800e+01 4.244995e-04
      vertex -6.758413e+01 -9.063881e-02 4.244995e-04
      vertex -7.667416e+01 -3.851931e+01 4.244995e-04
    endloop
  endfacet
  facet normal 0.000000e+00 1.224647e-16 -1.000000e+00
    outer loop
      vertex -7.667416e+01 3.833800e+01 4.244995e-04
      vertex -6.446229e+01 1.912368e+01 4.244995e-04
      vertex -6.758413e+01 -9.063881e-02 4.244995e-04
    endloop
  endfacet
  facet normal 0.000000e+00 1.224647e-16 -1.000000e+00
    outer loop
      vertex -5.543012e+01 3.833800e+01 4.244995e-04
      vertex -6.446229e+01 1.912368e+01 4.244995e-04
      vertex -7.667416e+01 3.833800e+01 4.244995e-04
    endloop
  endfacet
  facet normal -3.106519e-02 1.126003e-02 9.994539e-01
    outer loop
      vertex 4.801823e+01 3.833800e+01 2.302763e+01
      vertex 5.753812e+01 1.912368e+01 2.354000e+01
      vertex 6.460453e+01 3.833800e+01 2.354317e+01
    endloop
  endfacet
  facet normal -3.910105e-04 -2.104557e-05 9.999999e-01
    outer loop
      vertex 6.460453e+01 3.833800e+01 2.354317e+01
      vertex 5.753812e+01 1.912368e+01 2.354000e+01
      vertex 6.066008e+01 -9.063881e-02 2.354082e+01
    endloop
  endfacet
  facet normal -5.960461e-04 -1.225011e-16 9.999998e-01
    outer loop
      vertex 6.460453e+01 3.833800e+01 2.354317e+01
      vertex 6.066008e+01 -9.063881e-02 2.354082e+01
      vertex 6.460453e+01 -3.851931e+01 2.354317e+01
    endloop
  endfacet
  facet normal -3.910105e-04 2.104556e-05 9.999999e-01
    outer loop
      vertex 6.460453e+01 -3.851931e+01 2.354317e+01
      vertex 6.066008e+01 -9.063881e-02 2.354082e+01
      vertex 5.753812e+01 -1.930496e+01 2.354000e+01
    endloop
  endfacet
  facet normal -3.427936e-04 3.877817e-05 9.999999e-01
    outer loop
      vertex 4.850594e+01 -3.851931e+01 2.353765e+01
      vertex 6.460453e+01 -3.851931e+01 2.354317e+01
      vertex 5.753812e+01 -1.930496e+01 2.354000e+01
    endloop
  endfacet
  facet normal -8.957810e-01 4.441079e-01 1.856157e-02
    outer loop
      vertex 4.850594e+01 -3.851931e+01 2.353765e+01
      vertex 5.754426e+01 -1.930496e+01 0.000000e+00
      vertex 4.801823e+01 -3.851931e+01 4.244995e-04
    endloop
  endfacet
  facet normal -9.049978e-01 4.254163e-01 -2.360113e-04
    outer loop
      vertex 4.850594e+01 -3.851931e+01 2.353765e+01
      vertex 5.753812e+01 -1.930496e+01 2.354000e+01
      vertex 5.754426e+01 -1.930496e+01 0.000000e+00
    endloop
  endfacet
  facet normal -9.870557e-01 1.603780e-01 -2.574109e-04
    outer loop
      vertex 5.753812e+01 -1.930496e+01 2.354000e+01
      vertex 6.066622e+01 -9.063881e-02 8.163452e-04
      vertex 5.754426e+01 -1.930496e+01 0.000000e+00
    endloop
  endfacet
  facet normal -9.870557e-01 1.603780e-01 -2.574109e-04
    outer loop
      vertex 6.066008e+01 -9.063881e-02 2.354082e+01
      vertex 6.066622e+01 -9.063881e-02 8.163452e-04
      vertex 5.753812e+01 -1.930496e+01 2.354000e+01
    endloop
  endfacet
  facet normal -9.870557e-01 -1.603780e-01 -2.574109e-04
    outer loop
      vertex 6.066008e+01 -9.063881e-02 2.354082e+01
      vertex 5.754426e+01 1.912368e+01 0.000000e+00
      vertex 6.066622e+01 -9.063881e-02 8.163452e-04
    endloop
  endfacet
  facet normal -9.870557e-01 -1.603780e-01 -2.574109e-04
    outer loop
      vertex 6.066008e+01 -9.063881e-02 2.354082e+01
      vertex 5.753812e+01 1.912368e+01 2.354000e+01
      vertex 5.754426e+01 1.912368e+01 0.000000e+00
    endloop
  endfacet
  facet normal -9.049975e-01 -4.254168e-01 -2.360112e-04
    outer loop
      vertex 4.851208e+01 3.833800e+01 4.244995e-04
      vertex 5.754426e+01 1.912368e+01 0.000000e+00
      vertex 5.753812e+01 1.912368e+01 2.354000e+01
    endloop
  endfacet
  facet normal -8.956800e-01 -4.442842e-01 -1.920933e-02
    outer loop
      vertex 4.801823e+01 3.833800e+01 2.302763e+01
      vertex 4.851208e+01 3.833800e+01 4.244995e-04
      vertex 5.753812e+01 1.912368e+01 2.354000e+01
    endloop
  endfacet
  facet normal 1.352796e-21 -2.209284e-05 -1.000000e+00
    outer loop
      vertex 4.801823e+01 -3.851931e+01 4.244995e-04
      vertex 5.754426e+01 -1.930496e+01 0.000000e+00
      vertex 6.461067e+01 -3.851931e+01 4.244995e-04
    endloop
  endfacet
  facet normal 1.217903e-04 2.269767e-05 -1.000000e+00
    outer loop
      vertex 6.461067e+01 -3.851931e+01 4.244995e-04
      vertex 5.754426e+01 -1.930496e+01 0.000000e+00
      vertex 6.066622e+01 -9.063881e-02 8.163452e-04
    endloop
  endfacet
  facet normal -9.934104e-05 1.224586e-16 -1.000000e+00
    outer loop
      vertex 6.461067e+01 3.833800e+01 4.244995e-04
      vertex 6.461067e+01 -3.851931e+01 4.244995e-04
      vertex 6.066622e+01 -9.063881e-02 8.163452e-04
    endloop
  endfacet
  facet normal 1.217902e-04 -2.269768e-05 -1.000000e+00
    outer loop
      vertex 6.461067e+01 3.833800e+01 4.244995e-04
      vertex 6.066622e+01 -9.063881e-02 8.163452e-04
      vertex 5.754426e+01 1.912368e+01 0.000000e+00
    endloop
  endfacet
  facet normal -1.352798e-21 2.209288e-05 -1.000000e+00
    outer loop
      vertex 4.851208e+01 3.833800e+01 4.244995e-04
      vertex 6.461067e+01 3.833800e+01 4.244995e-04
      vertex 5.754426e+01 1.912368e+01 0.000000e+00
    endloop
  endfacet
  facet normal 9.999999e-01 6.120040e-17 2.607562e-04
    outer loop
      vertex 6.460453e+01 3.833800e+01 2.354317e+01
      vertex 6.460453e+01 -3.851931e+01 2.354317e+01
      vertex 6.461067e+01 -3.851931e+01 4.244995e-04
    endloop
  endfacet
  facet normal 9.999999e-01 6.120040e-17 2.607562e-04
    outer loop
      vertex 6.460453e+01 3.833800e+01 2.354317e+01
      vertex 6.461067e+01 -3.851931e+01 4.244995e-04
      vertex 6.461067e+01 3.833800e+01 4.244995e-04
    endloop
  endfacet
  facet normal 6.123234e-17 -1.000000e+00 -1.224647e-16
    outer loop
      vertex 6.460453e+01 3.833800e+01 2.354317e+01
      vertex 7.189351e+01 3.833800e+01 1.095062e+02
      vertex 4.801823e+01 3.833800e+01 1.090871e+02
    endloop
  endfacet
  facet normal 6.123234e-17 -1.000000e+00 -1.224647e-16
    outer loop
      vertex 7.189351e+01 3.833800e+01 1.095062e+02
      vertex 6.460453e+01 3.833800e+01 2.354317e+01
      vertex 8.923530e+01 3.833800e+01 8.024905e+01
    endloop
  endfacet
  facet normal 6.123234e-17 -1.000000e+00 -1.224647e-16
    outer loop
      vertex 6.460453e+01 3.833800e+01 2.354317e+01
      vertex 6.461067e+01 3.833800e+01 4.244995e-04
      vertex 8.923530e+01 3.833800e+01 8.024905e+01
    endloop
  endfacet
  facet normal 9.170237e-01 -3.983475e-01 1.966708e-02
    outer loop
      vertex 4.851208e+01 3.833800e+01 4.244995e-04
      vertex 4.801823e+01 3.833800e+01 2.302763e+01
      vertex 4.066498e+01 2.027342e+01 4.244995e-04
    endloop
  endfacet
  facet normal 9.262069e-01 -3.770156e-01 -4.617110e-17
    outer loop
      vertex 4.801823e+01 3.833800e+01 2.302763e+01
      vertex 4.801823e+01 3.833800e+01 1.090871e+02
      vertex 4.066498e+01 2.027342e+01 4.244995e-04
    endloop
  endfacet
  facet normal 6.123234e-17 -1.000000e+00 -1.224647e-16
    outer loop
      vertex 4.801823e+01 3.833800e+01 1.090871e+02
      vertex 4.801823e+01 3.833800e+01 2.302763e+01
      vertex 6.460453e+01 3.833800e+01 2.354317e+01
    endloop
  endfacet
  facet normal 9.148003e-01 4.038726e-01 5.215273e-03
    outer loop
      vertex 4.801823e+01 -3.851931e+01 1.090871e+02
      vertex 4.850594e+01 -3.851931e+01 2.353765e+01
      vertex 4.066498e+01 -2.045502e+01 4.244995e-04
    endloop
  endfacet
  facet normal 9.260343e-01 3.769514e-01 -1.918845e-02
    outer loop
      vertex 4.850594e+01 -3.851931e+01 2.353765e+01
      vertex 4.801823e+01 -3.851931e+01 4.244995e-04
      vertex 4.066498e+01 -2.045502e+01 4.244995e-04
    endloop
  endfacet
  facet normal -6.123234e-17 1.000000e+00 1.224647e-16
    outer loop
      vertex 6.461067e+01 -3.851931e+01 4.244995e-04
      vertex 6.460453e+01 -3.851931e+01 2.354317e+01
      vertex 8.923530e+01 -3.851931e+01 8.024905e+01
    endloop
  endfacet
  facet normal -6.123234e-17 1.000000e+00 1.224647e-16
    outer loop
      vertex 6.460453e+01 -3.851931e+01 2.354317e+01
      vertex 7.170491e+01 -3.851931e+01 1.095062e+02
      vertex 8.923530e+01 -3.851931e+01 8.024905e+01
    endloop
  endfacet
  facet normal -6.123234e-17 1.000000e+00 1.224647e-16
    outer loop
      vertex 4.801823e+01 -3.851931e+01 1.090871e+02
      vertex 7.170491e+01 -3.851931e+01 1.095062e+02
      vertex 4.850594e+01 -3.851931e+01 2.353765e+01
    endloop
  endfacet
  facet normal -6.123234e-17 1.000000e+00 1.224647e-16
    outer loop
      vertex 7.170491e+01 -3.851931e+01 1.095062e+02
      vertex 6.460453e+01 -3.851931e+01 2.354317e+01
      vertex 4.850594e+01 -3.851931e+01 2.353765e+01
    endloop
  endfacet
endsolid Default
