solid Default
  facet normal -6.123234e-17 -1.000000e+00 -2.449293e-16
    outer loop
      vertex -6.679562e+01 3.675472e+01 1.745553e+01
      vertex -7.643098e+01 3.675472e+01 3.355260e-01
      vertex -6.679562e+01 3.675472e+01 3.355260e-01
    endloop
  endfacet
  facet normal -6.123234e-17 -1.000000e+00 -2.449293e-16
    outer loop
      vertex -6.679562e+01 3.675472e+01 1.745553e+01
      vertex -7.643098e+01 3.675472e+01 1.745553e+01
      vertex -7.643098e+01 3.675472e+01 3.355260e-01
    endloop
  endfacet
  facet normal -7.271128e-01 -6.865180e-01 -2.126712e-16
    outer loop
      vertex -6.679562e+01 3.675472e+01 1.745553e+01
      vertex -6.147787e+01 3.112252e+01 0.000000e+00
      vertex -6.147787e+01 3.112252e+01 1.745585e+01
    endloop
  endfacet
  facet normal -7.271128e-01 -6.865180e-01 -2.126712e-16
    outer loop
      vertex -6.679562e+01 3.675472e+01 1.745553e+01
      vertex -6.679562e+01 3.675472e+01 3.355260e-01
      vertex -6.147787e+01 3.112252e+01 0.000000e+00
    endloop
  endfacet
  facet normal -6.123234e-17 -1.000000e+00 -2.449293e-16
    outer loop
      vertex -6.679562e+01 -4.010259e+01 1.745553e+01
      vertex -7.575398e+01 -4.010259e+01 3.355260e-01
      vertex -6.679562e+01 -4.010259e+01 3.355260e-01
    endloop
  endfacet
  facet normal -6.123234e-17 -1.000000e+00 -2.449293e-16
    outer loop
      vertex -6.679562e+01 -4.010259e+01 1.745553e+01
      vertex -7.575398e+01 -4.010259e+01 1.745553e+01
      vertex -7.575398e+01 -4.010259e+01 3.355260e-01
    endloop
  endfacet
  facet normal 7.270880e-01 -6.865442e-01 -1.236335e-16
    outer loop
      vertex -6.679562e+01 -4.010259e+01 1.745553e+01
      vertex -6.679562e+01 -4.010259e+01 3.355260e-01
      vertex -6.147787e+01 -3.447080e+01 1.745585e+01
    endloop
  endfacet
  facet normal 7.270880e-01 -6.865442e-01 -1.236335e-16
    outer loop
      vertex -6.679562e+01 -4.010259e+01 3.355260e-01
      vertex -6.147787e+01 -3.447080e+01 4.026011e-01
      vertex -6.147787e+01 -3.447080e+01 1.745585e+01
    endloop
  endfacet
  facet normal -9.702164e-05 3.399272e-05 1.000000e+00
    outer loop
      vertex -6.679562e+01 -4.010259e+01 1.745553e+01
      vertex -6.147787e+01 -3.447080e+01 1.745585e+01
      vertex -6.147787e+01 -2.492472e+01 1.745553e+01
    endloop
  endfacet
  facet normal -6.123234e-17 -2.449293e-16 1.000000e+00
    outer loop
      vertex -6.679562e+01 -4.010259e+01 1.745553e+01
      vertex -6.147787e+01 -2.492472e+01 1.745553e+01
      vertex -6.147787e+01 -1.039658e+01 1.745553e+01
    endloop
  endfacet
  facet normal -6.123234e-17 -2.449293e-16 1.000000e+00
    outer loop
      vertex -6.679562e+01 -4.010259e+01 1.745553e+01
      vertex -6.147787e+01 -1.039658e+01 1.745553e+01
      vertex -6.938065e+01 -1.673940e+00 1.745553e+01
    endloop
  endfacet
  facet normal -6.123234e-17 -2.449293e-16 1.000000e+00
    outer loop
      vertex -6.147787e+01 -1.039658e+01 1.745553e+01
      vertex -6.147787e+01 4.721826e+00 1.745553e+01
      vertex -6.938065e+01 -1.673940e+00 1.745553e+01
    endloop
  endfacet
  facet normal 6.123234e-17 2.449293e-16 -1.000000e+00
    outer loop
      vertex -6.679562e+01 3.675472e+01 1.745553e+01
      vertex -6.147787e+01 4.721826e+00 1.745553e+01
      vertex -6.938065e+01 -1.673940e+00 1.745553e+01
    endloop
  endfacet
  facet normal 6.123234e-17 2.449293e-16 -1.000000e+00
    outer loop
      vertex -6.679562e+01 3.675472e+01 1.745553e+01
      vertex -6.117846e+01 2.818848e+01 1.745553e+01
      vertex -6.147787e+01 4.721826e+00 1.745553e+01
    endloop
  endfacet
  facet normal 1.997479e-04 1.309813e-04 -1.000000e+00
    outer loop
      vertex -6.679562e+01 3.675472e+01 1.745553e+01
      vertex -6.147787e+01 3.112252e+01 1.745585e+01
      vertex -6.117846e+01 2.818848e+01 1.745553e+01
    endloop
  endfacet
  facet normal 2.005027e-02 -7.024859e-03 -9.997743e-01
    outer loop
      vertex -6.679562e+01 -4.010259e+01 3.355260e-01
      vertex -6.147787e+01 -2.492472e+01 3.355260e-01
      vertex -6.147787e+01 -3.447080e+01 4.026011e-01
    endloop
  endfacet
  facet normal 6.123234e-17 2.449293e-16 -1.000000e+00
    outer loop
      vertex -6.679562e+01 -4.010259e+01 3.355260e-01
      vertex -6.147787e+01 -1.039658e+01 3.355260e-01
      vertex -6.147787e+01 -2.492472e+01 3.355260e-01
    endloop
  endfacet
  facet normal 6.123234e-17 2.449293e-16 -1.000000e+00
    outer loop
      vertex -6.679562e+01 -4.010259e+01 3.355260e-01
      vertex -6.938065e+01 -1.673940e+00 3.355260e-01
      vertex -6.147787e+01 -1.039658e+01 3.355260e-01
    endloop
  endfacet
  facet normal 6.123234e-17 2.449293e-16 -1.000000e+00
    outer loop
      vertex -6.147787e+01 -1.039658e+01 3.355260e-01
      vertex -6.938065e+01 -1.673940e+00 3.355260e-01
      vertex -6.147787e+01 4.721826e+00 3.355260e-01
    endloop
  endfacet
  facet normal 6.123234e-17 2.449293e-16 -1.000000e+00
    outer loop
      vertex -6.117846e+01 2.818848e+01 3.355260e-01
      vertex -6.147787e+01 4.721826e+00 3.355260e-01
      vertex -6.938065e+01 -1.673940e+00 3.355260e-01
    endloop
  endfacet
  facet normal 1.000000e+00 -6.123234e-17 6.123234e-17
    outer loop
      vertex -6.147787e+01 -3.447080e+01 4.026011e-01
      vertex -6.147787e+01 -2.492472e+01 3.355260e-01
      vertex -6.147787e+01 -2.492472e+01 1.745553e+01
    endloop
  endfacet
  facet normal 1.000000e+00 -6.123234e-17 6.123234e-17
    outer loop
      vertex -6.147787e+01 -3.447080e+01 4.026011e-01
      vertex -6.147787e+01 -2.492472e+01 1.745553e+01
      vertex -6.147787e+01 -3.447080e+01 1.745585e+01
    endloop
  endfacet
  facet normal 9.948335e-01 1.015202e-01 8.578126e-17
    outer loop
      vertex -6.147787e+01 3.112252e+01 0.000000e+00
      vertex -6.117846e+01 2.818848e+01 1.745553e+01
      vertex -6.117846e+01 2.818848e+01 3.355260e-01
    endloop
  endfacet
  facet normal -9.948335e-01 -1.015202e-01 -8.578126e-17
    outer loop
      vertex -6.147787e+01 3.112252e+01 0.000000e+00
      vertex -6.117846e+01 2.818848e+01 1.745553e+01
      vertex -6.147787e+01 3.112252e+01 1.745585e+01
    endloop
  endfacet
  facet normal 1.000000e+00 -6.123234e-17 6.123234e-17
    outer loop
      vertex -6.147787e+01 -1.039658e+01 1.745553e+01
      vertex -6.147787e+01 4.721826e+00 3.355260e-01
      vertex -6.147787e+01 4.721826e+00 1.745553e+01
    endloop
  endfacet
  facet normal 1.000000e+00 -6.123234e-17 6.123234e-17
    outer loop
      vertex -6.147787e+01 -1.039658e+01 1.745553e+01
      vertex -6.147787e+01 -1.039658e+01 3.355260e-01
      vertex -6.147787e+01 4.721826e+00 3.355260e-01
    endloop
  endfacet
  facet normal 6.123234e-17 2.449293e-16 -1.000000e+00
    outer loop
      vertex -6.117846e+01 2.818848e+01 3.355260e-01
      vertex -2.724798e+01 4.721826e+00 3.355260e-01
      vertex -6.147787e+01 4.721826e+00 3.355260e-01
    endloop
  endfacet
  facet normal 6.123234e-17 2.449293e-16 -1.000000e+00
    outer loop
      vertex -6.117846e+01 2.818848e+01 3.355260e-01
      vertex -2.724798e+01 2.818848e+01 3.355260e-01
      vertex -2.724798e+01 4.721826e+00 3.355260e-01
    endloop
  endfacet
  facet normal -6.123234e-17 -1.000000e+00 -2.449293e-16
    outer loop
      vertex -6.147787e+01 4.721826e+00 3.355260e-01
      vertex -2.724798e+01 4.721826e+00 3.355260e-01
      vertex -2.724798e+01 4.721826e+00 1.745553e+01
    endloop
  endfacet
  facet normal -6.123234e-17 -1.000000e+00 -2.449293e-16
    outer loop
      vertex -6.147787e+01 4.721826e+00 3.355260e-01
      vertex -2.724798e+01 4.721826e+00 1.745553e+01
      vertex -6.147787e+01 4.721826e+00 1.745553e+01
    endloop
  endfacet
  facet normal -6.123234e-17 -2.449293e-16 1.000000e+00
    outer loop
      vertex -6.147787e+01 -1.039658e+01 3.355260e-01
      vertex -2.724798e+01 -2.492472e+01 3.355260e-01
      vertex -2.724798e+01 -1.039658e+01 3.355260e-01
    endloop
  endfacet
  facet normal 6.123234e-17 2.449293e-16 -1.000000e+00
    outer loop
      vertex -6.147787e+01 -2.492472e+01 3.355260e-01
      vertex -6.147787e+01 -1.039658e+01 3.355260e-01
      vertex -2.724798e+01 -2.492472e+01 3.355260e-01
    endloop
  endfacet
  facet normal -6.123234e-17 -1.000000e+00 -2.449293e-16
    outer loop
      vertex -6.147787e+01 -2.492472e+01 1.745553e+01
      vertex -6.147787e+01 -2.492472e+01 3.355260e-01
      vertex -2.724798e+01 -2.492472e+01 3.355260e-01
    endloop
  endfacet
  facet normal -6.123234e-17 -1.000000e+00 -2.449293e-16
    outer loop
      vertex -6.147787e+01 -2.492472e+01 1.745553e+01
      vertex -2.724798e+01 -2.492472e+01 3.355260e-01
      vertex -2.724798e+01 -2.492472e+01 1.745553e+01
    endloop
  endfacet
  facet normal 6.123234e-17 1.000000e+00 2.449293e-16
    outer loop
      vertex -6.147787e+01 -1.039658e+01 1.745553e+01
      vertex -2.724798e+01 -1.039658e+01 1.745553e+01
      vertex -6.147787e+01 -1.039658e+01 3.355260e-01
    endloop
  endfacet
  facet normal 6.123234e-17 1.000000e+00 2.449293e-16
    outer loop
      vertex -6.147787e+01 -1.039658e+01 3.355260e-01
      vertex -2.724798e+01 -1.039658e+01 1.745553e+01
      vertex -2.724798e+01 -1.039658e+01 3.355260e-01
    endloop
  endfacet
  facet normal 6.123234e-17 1.000000e+00 2.449293e-16
    outer loop
      vertex -6.117846e+01 2.818848e+01 1.745553e+01
      vertex -2.724798e+01 2.818848e+01 1.745553e+01
      vertex -6.117846e+01 2.818848e+01 3.355260e-01
    endloop
  endfacet
  facet normal 6.123234e-17 1.000000e+00 2.449293e-16
    outer loop
      vertex -6.117846e+01 2.818848e+01 3.355260e-01
      vertex -2.724798e+01 2.818848e+01 1.745553e+01
      vertex -2.724798e+01 2.818848e+01 3.355260e-01
    endloop
  endfacet
  facet normal -6.123234e-17 -2.449293e-16 1.000000e+00
    outer loop
      vertex -6.147787e+01 -2.492472e+01 1.745553e+01
      vertex -2.724798e+01 -1.039658e+01 1.745553e+01
      vertex -6.147787e+01 -1.039658e+01 1.745553e+01
    endloop
  endfacet
  facet normal -6.123234e-17 -2.449293e-16 1.000000e+00
    outer loop
      vertex -6.147787e+01 -2.492472e+01 1.745553e+01
      vertex -2.724798e+01 -2.492472e+01 1.745553e+01
      vertex -2.724798e+01 -1.039658e+01 1.745553e+01
    endloop
  endfacet
  facet normal -6.123234e-17 -2.449293e-16 1.000000e+00
    outer loop
      vertex -6.117846e+01 2.818848e+01 1.745553e+01
      vertex -6.147787e+01 4.721826e+00 1.745553e+01
      vertex -2.724798e+01 2.818848e+01 1.745553e+01
    endloop
  endfacet
  facet normal -6.123234e-17 -2.449293e-16 1.000000e+00
    outer loop
      vertex -6.147787e+01 4.721826e+00 1.745553e+01
      vertex -2.724798e+01 4.721826e+00 1.745553e+01
      vertex -2.724798e+01 2.818848e+01 1.745553e+01
    endloop
  endfacet
  facet normal 6.123234e-17 2.449293e-16 -1.000000e+00
    outer loop
      vertex -2.724798e+01 4.721826e+00 3.355260e-01
      vertex -9.907260e+00 -1.531756e+01 3.355260e-01
      vertex -2.724798e+01 -1.039658e+01 3.355260e-01
    endloop
  endfacet
  facet normal 6.123234e-17 2.449293e-16 -1.000000e+00
    outer loop
      vertex -9.907260e+00 4.721826e+00 3.355260e-01
      vertex -9.907260e+00 -1.531756e+01 3.355260e-01
      vertex -2.724798e+01 4.721826e+00 3.355260e-01
    endloop
  endfacet
  facet normal 1.000000e+00 -6.123234e-17 6.123234e-17
    outer loop
      vertex -9.907260e+00 4.721826e+00 3.355260e-01
      vertex -9.907260e+00 4.721826e+00 1.745553e+01
      vertex -9.907260e+00 -1.531756e+01 1.745553e+01
    endloop
  endfacet
  facet normal 1.000000e+00 -6.123234e-17 6.123234e-17
    outer loop
      vertex -9.907260e+00 4.721826e+00 3.355260e-01
      vertex -9.907260e+00 -1.531756e+01 1.745553e+01
      vertex -9.907260e+00 -1.531756e+01 3.355260e-01
    endloop
  endfacet
  facet normal -6.123234e-17 -2.449293e-16 1.000000e+00
    outer loop
      vertex -9.907260e+00 4.721826e+00 1.745553e+01
      vertex -2.724798e+01 4.721826e+00 1.745553e+01
      vertex -9.907260e+00 -1.531756e+01 1.745553e+01
    endloop
  endfacet
  facet normal -6.123234e-17 -2.449293e-16 1.000000e+00
    outer loop
      vertex -2.724798e+01 4.721826e+00 1.745553e+01
      vertex -2.724798e+01 -1.039658e+01 1.745553e+01
      vertex -9.907260e+00 -1.531756e+01 1.745553e+01
    endloop
  endfacet
  facet normal -1.000000e+00 6.123234e-17 -6.123234e-17
    outer loop
      vertex -2.724798e+01 4.721826e+00 3.355260e-01
      vertex -2.724798e+01 -1.039658e+01 3.355260e-01
      vertex -2.724798e+01 -1.039658e+01 1.745553e+01
    endloop
  endfacet
  facet normal -1.000000e+00 6.123234e-17 -6.123234e-17
    outer loop
      vertex -2.724798e+01 4.721826e+00 3.355260e-01
      vertex -2.724798e+01 -1.039658e+01 1.745553e+01
      vertex -2.724798e+01 4.721826e+00 1.745553e+01
    endloop
  endfacet
  facet normal 6.123234e-17 2.449293e-16 -1.000000e+00
    outer loop
      vertex -9.907260e+00 2.818848e+01 3.355260e-01
      vertex -2.724798e+01 4.721826e+00 3.355260e-01
      vertex -2.724798e+01 2.818848e+01 3.355260e-01
    endloop
  endfacet
  facet normal 6.123234e-17 2.449293e-16 -1.000000e+00
    outer loop
      vertex -9.907260e+00 2.818848e+01 3.355260e-01
      vertex -9.907260e+00 4.721826e+00 3.355260e-01
      vertex -2.724798e+01 4.721826e+00 3.355260e-01
    endloop
  endfacet
  facet normal 6.123234e-17 2.449293e-16 -1.000000e+00
    outer loop
      vertex -9.907260e+00 -2.492472e+01 3.355260e-01
      vertex -2.724798e+01 -1.039658e+01 3.355260e-01
      vertex -9.907260e+00 -1.531756e+01 3.355260e-01
    endloop
  endfacet
  facet normal 6.123234e-17 2.449293e-16 -1.000000e+00
    outer loop
      vertex -9.907260e+00 -2.492472e+01 3.355260e-01
      vertex -2.724798e+01 -2.492472e+01 3.355260e-01
      vertex -2.724798e+01 -1.039658e+01 3.355260e-01
    endloop
  endfacet
  facet normal -6.123234e-17 -1.000000e+00 -2.449293e-16
    outer loop
      vertex -2.724798e+01 -2.492472e+01 3.355260e-01
      vertex -9.907260e+00 -2.492472e+01 1.745553e+01
      vertex -2.724798e+01 -2.492472e+01 1.745553e+01
    endloop
  endfacet
  facet normal -6.123234e-17 -1.000000e+00 -2.449293e-16
    outer loop
      vertex -9.907260e+00 -2.492472e+01 3.355260e-01
      vertex -9.907260e+00 -2.492472e+01 1.745553e+01
      vertex -2.724798e+01 -2.492472e+01 3.355260e-01
    endloop
  endfacet
  facet normal 6.123234e-17 1.000000e+00 2.449293e-16
    outer loop
      vertex -2.724798e+01 2.818848e+01 1.745553e+01
      vertex -9.907260e+00 2.818848e+01 3.355260e-01
      vertex -2.724798e+01 2.818848e+01 3.355260e-01
    endloop
  endfacet
  facet normal 6.123234e-17 1.000000e+00 2.449293e-16
    outer loop
      vertex -9.907260e+00 2.818848e+01 1.745553e+01
      vertex -9.907260e+00 2.818848e+01 3.355260e-01
      vertex -2.724798e+01 2.818848e+01 1.745553e+01
    endloop
  endfacet
  facet normal 6.123234e-17 1.000000e+00 2.449293e-16
    outer loop
      vertex -9.907260e+00 2.818848e+01 1.745553e+01
      vertex 3.623539e+01 2.818848e+01 1.745553e+01
      vertex -9.907260e+00 2.818848e+01 3.355260e-01
    endloop
  endfacet
  facet normal 6.123234e-17 1.000000e+00 2.449293e-16
    outer loop
      vertex 3.623539e+01 2.818848e+01 1.745553e+01
      vertex 3.623539e+01 2.818848e+01 3.358526e-01
      vertex -9.907260e+00 2.818848e+01 3.355260e-01
    endloop
  endfacet
  facet normal 6.123234e-17 1.000000e+00 2.449293e-16
    outer loop
      vertex 7.265779e+01 2.818848e+01 1.745553e+01
      vertex 3.623539e+01 2.818848e+01 3.358526e-01
      vertex 3.623539e+01 2.818848e+01 1.745553e+01
    endloop
  endfacet
  facet normal 6.123234e-17 1.000000e+00 2.449293e-16
    outer loop
      vertex 7.265779e+01 2.818848e+01 1.745553e+01
      vertex 7.265779e+01 2.818848e+01 3.358485e-01
      vertex 3.623539e+01 2.818848e+01 3.358526e-01
    endloop
  endfacet
  facet normal 7.076709e-06 2.449289e-16 -1.000000e+00
    outer loop
      vertex -9.907260e+00 2.818848e+01 3.355260e-01
      vertex 3.623539e+01 4.721826e+00 3.358526e-01
      vertex -9.907260e+00 4.721826e+00 3.355260e-01
    endloop
  endfacet
  facet normal 7.076709e-06 2.449289e-16 -1.000000e+00
    outer loop
      vertex -9.907260e+00 2.818848e+01 3.355260e-01
      vertex 3.623539e+01 2.818848e+01 3.358526e-01
      vertex 3.623539e+01 4.721826e+00 3.358526e-01
    endloop
  endfacet
  facet normal -1.120664e-07 2.449294e-16 -1.000000e+00
    outer loop
      vertex 7.265779e+01 4.721826e+00 3.358485e-01
      vertex 3.623539e+01 4.721826e+00 3.358526e-01
      vertex 3.623539e+01 2.818848e+01 3.358526e-01
    endloop
  endfacet
  facet normal -1.120664e-07 2.449294e-16 -1.000000e+00
    outer loop
      vertex 7.265779e+01 2.818848e+01 3.358485e-01
      vertex 7.265779e+01 4.721826e+00 3.358485e-01
      vertex 3.623539e+01 2.818848e+01 3.358526e-01
    endloop
  endfacet
  facet normal -6.123234e-17 -1.000000e+00 -2.449293e-16
    outer loop
      vertex -9.907260e+00 4.721826e+00 3.355260e-01
      vertex 3.623539e+01 4.721826e+00 1.745553e+01
      vertex -9.907260e+00 4.721826e+00 1.745553e+01
    endloop
  endfacet
  facet normal -6.123234e-17 -1.000000e+00 -2.449293e-16
    outer loop
      vertex -9.907260e+00 4.721826e+00 3.355260e-01
      vertex 3.623539e+01 4.721826e+00 3.358526e-01
      vertex 3.623539e+01 4.721826e+00 1.745553e+01
    endloop
  endfacet
  facet normal -6.123234e-17 -1.000000e+00 -2.449293e-16
    outer loop
      vertex 7.265779e+01 4.721826e+00 1.745553e+01
      vertex 3.623539e+01 4.721826e+00 1.745553e+01
      vertex 3.623539e+01 4.721826e+00 3.358526e-01
    endloop
  endfacet
  facet normal -6.123234e-17 -1.000000e+00 -2.449293e-16
    outer loop
      vertex 7.265779e+01 4.721826e+00 3.358485e-01
      vertex 7.265779e+01 4.721826e+00 1.745553e+01
      vertex 3.623539e+01 4.721826e+00 3.358526e-01
    endloop
  endfacet
  facet normal -6.123234e-17 -2.449293e-16 1.000000e+00
    outer loop
      vertex -2.724798e+01 2.818848e+01 1.745553e+01
      vertex -2.724798e+01 4.721826e+00 1.745553e+01
      vertex -9.907260e+00 4.721826e+00 1.745553e+01
    endloop
  endfacet
  facet normal -6.123234e-17 -2.449293e-16 1.000000e+00
    outer loop
      vertex -9.907260e+00 2.818848e+01 1.745553e+01
      vertex -2.724798e+01 2.818848e+01 1.745553e+01
      vertex -9.907260e+00 4.721826e+00 1.745553e+01
    endloop
  endfacet
  facet normal -6.123234e-17 -2.449293e-16 1.000000e+00
    outer loop
      vertex -9.907260e+00 2.818848e+01 1.745553e+01
      vertex -9.907260e+00 4.721826e+00 1.745553e+01
      vertex 3.623539e+01 4.721826e+00 1.745553e+01
    endloop
  endfacet
  facet normal -6.123234e-17 -2.449293e-16 1.000000e+00
    outer loop
      vertex -9.907260e+00 2.818848e+01 1.745553e+01
      vertex 3.623539e+01 4.721826e+00 1.745553e+01
      vertex 3.623539e+01 2.818848e+01 1.745553e+01
    endloop
  endfacet
  facet normal -6.123234e-17 -2.449293e-16 1.000000e+00
    outer loop
      vertex 7.265779e+01 4.721826e+00 1.745553e+01
      vertex 3.623539e+01 2.818848e+01 1.745553e+01
      vertex 3.623539e+01 4.721826e+00 1.745553e+01
    endloop
  endfacet
  facet normal -6.123234e-17 -2.449293e-16 1.000000e+00
    outer loop
      vertex 7.265779e+01 2.818848e+01 1.745553e+01
      vertex 3.623539e+01 2.818848e+01 1.745553e+01
      vertex 7.265779e+01 4.721826e+00 1.745553e+01
    endloop
  endfacet
  facet normal -6.123234e-17 -2.449293e-16 1.000000e+00
    outer loop
      vertex -2.724798e+01 -2.492472e+01 1.745553e+01
      vertex -9.907260e+00 -1.531756e+01 1.745553e+01
      vertex -2.724798e+01 -1.039658e+01 1.745553e+01
    endloop
  endfacet
  facet normal -6.123234e-17 -2.449293e-16 1.000000e+00
    outer loop
      vertex -9.907260e+00 -2.492472e+01 1.745553e+01
      vertex -9.907260e+00 -1.531756e+01 1.745553e+01
      vertex -2.724798e+01 -2.492472e+01 1.745553e+01
    endloop
  endfacet
  facet normal -6.123234e-17 -1.000000e+00 -2.449293e-16
    outer loop
      vertex -9.907260e+00 -2.492472e+01 3.355260e-01
      vertex -7.000802e+00 -2.492472e+01 3.181705e-02
      vertex -7.000802e+00 -2.492472e+01 1.745553e+01
    endloop
  endfacet
  facet normal -6.123234e-17 -1.000000e+00 -2.449293e-16
    outer loop
      vertex -9.907260e+00 -2.492472e+01 3.355260e-01
      vertex -7.000802e+00 -2.492472e+01 1.745553e+01
      vertex -9.907260e+00 -2.492472e+01 1.745553e+01
    endloop
  endfacet
  facet normal -6.123234e-17 -2.449293e-16 1.000000e+00
    outer loop
      vertex -9.907260e+00 -2.492472e+01 1.745553e+01
      vertex -7.000802e+00 -2.492472e+01 1.745553e+01
      vertex -9.907260e+00 -1.531756e+01 1.745553e+01
    endloop
  endfacet
  facet normal -6.123234e-17 -2.449293e-16 1.000000e+00
    outer loop
      vertex -7.643098e+01 3.675472e+01 3.355260e-01
      vertex -7.601068e+01 2.332632e+01 3.355260e-01
      vertex -6.679562e+01 3.675472e+01 3.355260e-01
    endloop
  endfacet
  facet normal -6.123234e-17 -2.449293e-16 1.000000e+00
    outer loop
      vertex -7.601068e+01 2.332632e+01 3.355260e-01
      vertex -6.938065e+01 -1.673940e+00 3.355260e-01
      vertex -6.679562e+01 3.675472e+01 3.355260e-01
    endloop
  endfacet
  facet normal 6.123234e-17 2.449293e-16 -1.000000e+00
    outer loop
      vertex -7.601068e+01 2.332632e+01 1.745553e+01
      vertex -6.679562e+01 3.675472e+01 1.745553e+01
      vertex -6.938065e+01 -1.673940e+00 1.745553e+01
    endloop
  endfacet
  facet normal 6.123234e-17 2.449293e-16 -1.000000e+00
    outer loop
      vertex -7.643098e+01 3.675472e+01 1.745553e+01
      vertex -6.679562e+01 3.675472e+01 1.745553e+01
      vertex -7.601068e+01 2.332632e+01 1.745553e+01
    endloop
  endfacet
  facet normal 6.123234e-17 2.449293e-16 -1.000000e+00
    outer loop
      vertex -7.575398e+01 -4.010259e+01 1.745553e+01
      vertex -7.578086e+01 -2.921579e+01 1.745553e+01
      vertex -6.679562e+01 -4.010259e+01 1.745553e+01
    endloop
  endfacet
  facet normal 6.123234e-17 2.449293e-16 -1.000000e+00
    outer loop
      vertex -7.578086e+01 -2.921579e+01 1.745553e+01
      vertex -6.938065e+01 -1.673940e+00 1.745553e+01
      vertex -6.679562e+01 -4.010259e+01 1.745553e+01
    endloop
  endfacet
  facet normal 6.123234e-17 2.449293e-16 -1.000000e+00
    outer loop
      vertex -7.575398e+01 -4.010259e+01 3.355260e-01
      vertex -7.578086e+01 -2.921579e+01 3.355260e-01
      vertex -6.679562e+01 -4.010259e+01 3.355260e-01
    endloop
  endfacet
  facet normal 6.123234e-17 2.449293e-16 -1.000000e+00
    outer loop
      vertex -7.578086e+01 -2.921579e+01 3.355260e-01
      vertex -6.938065e+01 -1.673940e+00 3.355260e-01
      vertex -6.679562e+01 -4.010259e+01 3.355260e-01
    endloop
  endfacet
  facet normal 1.083768e-02 9.999413e-01 2.455786e-16
    outer loop
      vertex -7.578086e+01 -2.921579e+01 1.745553e+01
      vertex -7.578086e+01 -2.921579e+01 3.355260e-01
      vertex -8.939048e+01 -2.906829e+01 3.355260e-01
    endloop
  endfacet
  facet normal 1.083768e-02 9.999413e-01 2.455786e-16
    outer loop
      vertex -7.578086e+01 -2.921579e+01 1.745553e+01
      vertex -8.939048e+01 -2.906829e+01 3.355260e-01
      vertex -8.939048e+01 -2.906829e+01 1.745553e+01
    endloop
  endfacet
  facet normal 6.123234e-17 2.449293e-16 -1.000000e+00
    outer loop
      vertex -7.575398e+01 -4.010259e+01 3.355260e-01
      vertex -8.939048e+01 -2.906829e+01 3.355260e-01
      vertex -7.578086e+01 -2.921579e+01 3.355260e-01
    endloop
  endfacet
  facet normal 6.123234e-17 2.449293e-16 -1.000000e+00
    outer loop
      vertex -7.575398e+01 -4.010259e+01 3.355260e-01
      vertex -8.936360e+01 -4.010259e+01 3.355260e-01
      vertex -8.939048e+01 -2.906829e+01 3.355260e-01
    endloop
  endfacet
  facet normal -6.123234e-17 -1.000000e+00 -2.449293e-16
    outer loop
      vertex -7.575398e+01 -4.010259e+01 1.745553e+01
      vertex -8.936360e+01 -4.010259e+01 3.355260e-01
      vertex -7.575398e+01 -4.010259e+01 3.355260e-01
    endloop
  endfacet
  facet normal -6.123234e-17 -1.000000e+00 -2.449293e-16
    outer loop
      vertex -7.575398e+01 -4.010259e+01 1.745553e+01
      vertex -8.936360e+01 -4.010259e+01 1.745553e+01
      vertex -8.936360e+01 -4.010259e+01 3.355260e-01
    endloop
  endfacet
  facet normal -6.123234e-17 -2.449293e-16 1.000000e+00
    outer loop
      vertex -7.575398e+01 -4.010259e+01 1.745553e+01
      vertex -7.578086e+01 -2.921579e+01 1.745553e+01
      vertex -8.939048e+01 -2.906829e+01 1.745553e+01
    endloop
  endfacet
  facet normal -6.123234e-17 -2.449293e-16 1.000000e+00
    outer loop
      vertex -7.575398e+01 -4.010259e+01 1.745553e+01
      vertex -8.939048e+01 -2.906829e+01 1.745553e+01
      vertex -8.936360e+01 -4.010259e+01 1.745553e+01
    endloop
  endfacet
  facet normal -9.999970e-01 -2.436235e-03 -6.182887e-17
    outer loop
      vertex -8.936360e+01 -4.010259e+01 3.355260e-01
      vertex -8.939048e+01 -2.906829e+01 1.745553e+01
      vertex -8.939048e+01 -2.906829e+01 3.355260e-01
    endloop
  endfacet
  facet normal -9.999970e-01 -2.436235e-03 -6.182887e-17
    outer loop
      vertex -8.936360e+01 -4.010259e+01 1.745553e+01
      vertex -8.939048e+01 -2.906829e+01 1.745553e+01
      vertex -8.936360e+01 -4.010259e+01 3.355260e-01
    endloop
  endfacet
  facet normal -6.123234e-17 -2.449293e-16 1.000000e+00
    outer loop
      vertex -7.643098e+01 3.675472e+01 3.355260e-01
      vertex -9.004060e+01 3.675472e+01 3.355260e-01
      vertex -7.601068e+01 2.332632e+01 3.355260e-01
    endloop
  endfacet
  facet normal -6.123234e-17 -2.449293e-16 1.000000e+00
    outer loop
      vertex -7.601068e+01 2.332632e+01 3.355260e-01
      vertex -9.004060e+01 3.675472e+01 3.355260e-01
      vertex -8.962030e+01 2.375094e+01 3.355260e-01
    endloop
  endfacet
  facet normal 3.118451e-02 9.995136e-01 2.467197e-16
    outer loop
      vertex -7.601068e+01 2.332632e+01 3.355260e-01
      vertex -8.962030e+01 2.375094e+01 3.355260e-01
      vertex -7.601068e+01 2.332632e+01 1.745553e+01
    endloop
  endfacet
  facet normal 3.118451e-02 9.995136e-01 2.467197e-16
    outer loop
      vertex -7.601068e+01 2.332632e+01 1.745553e+01
      vertex -8.962030e+01 2.375094e+01 3.355260e-01
      vertex -8.962030e+01 2.375094e+01 1.745553e+01
    endloop
  endfacet
  facet normal -6.123234e-17 -1.000000e+00 -2.449293e-16
    outer loop
      vertex -7.643098e+01 3.675472e+01 1.745553e+01
      vertex -9.004060e+01 3.675472e+01 3.355260e-01
      vertex -7.643098e+01 3.675472e+01 3.355260e-01
    endloop
  endfacet
  facet normal -6.123234e-17 -1.000000e+00 -2.449293e-16
    outer loop
      vertex -7.643098e+01 3.675472e+01 1.745553e+01
      vertex -9.004060e+01 3.675472e+01 1.745553e+01
      vertex -9.004060e+01 3.675472e+01 3.355260e-01
    endloop
  endfacet
  facet normal 6.123234e-17 2.449293e-16 -1.000000e+00
    outer loop
      vertex -7.643098e+01 3.675472e+01 1.745553e+01
      vertex -8.962030e+01 2.375094e+01 1.745553e+01
      vertex -9.004060e+01 3.675472e+01 1.745553e+01
    endloop
  endfacet
  facet normal 6.123234e-17 2.449293e-16 -1.000000e+00
    outer loop
      vertex -7.643098e+01 3.675472e+01 1.745553e+01
      vertex -7.601068e+01 2.332632e+01 1.745553e+01
      vertex -8.962030e+01 2.375094e+01 1.745553e+01
    endloop
  endfacet
  facet normal 9.994781e-01 3.230478e-02 6.911277e-17
    outer loop
      vertex -9.004060e+01 3.675472e+01 3.355260e-01
      vertex -8.962030e+01 2.375094e+01 1.745553e+01
      vertex -8.962030e+01 2.375094e+01 3.355260e-01
    endloop
  endfacet
  facet normal 9.994781e-01 3.230478e-02 6.911277e-17
    outer loop
      vertex -9.004060e+01 3.675472e+01 1.745553e+01
      vertex -8.962030e+01 2.375094e+01 1.745553e+01
      vertex -9.004060e+01 3.675472e+01 3.355260e-01
    endloop
  endfacet
  facet normal 9.665875e-01 2.563371e-01 1.219709e-16
    outer loop
      vertex -6.938065e+01 -1.673940e+00 1.745553e+01
      vertex -7.601068e+01 2.332632e+01 3.355260e-01
      vertex -7.601068e+01 2.332632e+01 1.745553e+01
    endloop
  endfacet
  facet normal 9.665875e-01 2.563371e-01 1.219709e-16
    outer loop
      vertex -6.938065e+01 -1.673940e+00 3.355260e-01
      vertex -7.601068e+01 2.332632e+01 3.355260e-01
      vertex -6.938065e+01 -1.673940e+00 1.745553e+01
    endloop
  endfacet
  facet normal 9.740461e-01 -2.263498e-01 4.203400e-18
    outer loop
      vertex -6.938065e+01 -1.673940e+00 3.355260e-01
      vertex -6.938065e+01 -1.673940e+00 1.745553e+01
      vertex -7.578086e+01 -2.921579e+01 3.355260e-01
    endloop
  endfacet
  facet normal 9.740461e-01 -2.263498e-01 4.203400e-18
    outer loop
      vertex -6.938065e+01 -1.673940e+00 1.745553e+01
      vertex -7.578086e+01 -2.921579e+01 1.745553e+01
      vertex -7.578086e+01 -2.921579e+01 3.355260e-01
    endloop
  endfacet
  facet normal 9.571571e-01 2.895691e-01 1.295330e-16
    outer loop
      vertex -7.000802e+00 -2.492472e+01 3.181705e-02
      vertex -9.907260e+00 -1.531756e+01 1.745553e+01
      vertex -7.000802e+00 -2.492472e+01 1.745553e+01
    endloop
  endfacet
  facet normal 9.571571e-01 2.895691e-01 1.295330e-16
    outer loop
      vertex -7.000802e+00 -2.492472e+01 3.181705e-02
      vertex -9.907260e+00 -1.531756e+01 3.355260e-01
      vertex -9.907260e+00 -1.531756e+01 1.745553e+01
    endloop
  endfacet
  facet normal -1.039287e-01 2.499668e-16 -9.945847e-01
    outer loop
      vertex -9.907260e+00 -2.492472e+01 3.355260e-01
      vertex -9.907260e+00 -1.531756e+01 3.355260e-01
      vertex -7.000802e+00 -2.492472e+01 3.181705e-02
    endloop
  endfacet
  facet normal -2.005118e-01 -1.314822e-01 -9.708282e-01
    outer loop
      vertex -6.679562e+01 3.675472e+01 3.355260e-01
      vertex -6.147787e+01 3.112252e+01 0.000000e+00
      vertex -6.117846e+01 2.818848e+01 3.355260e-01
    endloop
  endfacet
  facet normal 6.123234e-17 2.449293e-16 -1.000000e+00
    outer loop
      vertex -6.679562e+01 3.675472e+01 3.355260e-01
      vertex -6.117846e+01 2.818848e+01 3.355260e-01
      vertex -6.938065e+01 -1.673940e+00 3.355260e-01
    endloop
  endfacet
  facet normal -6.123234e-17 -2.449293e-16 1.000000e+00
    outer loop
      vertex 7.632176e+01 2.818848e+01 3.358485e-01
      vertex 7.632176e+01 1.950655e+01 3.358485e-01
      vertex 8.074952e+01 1.950655e+01 3.358485e-01
    endloop
  endfacet
  facet normal -6.123234e-17 -2.449293e-16 1.000000e+00
    outer loop
      vertex 7.632176e+01 2.818848e+01 3.358485e-01
      vertex 8.074952e+01 1.950655e+01 3.358485e-01
      vertex 8.074952e+01 2.818848e+01 3.358485e-01
    endloop
  endfacet
  facet normal 6.123234e-17 2.449293e-16 -1.000000e+00
    outer loop
      vertex 8.074952e+01 4.721826e+00 3.358485e-01
      vertex 7.632176e+01 1.372596e+01 3.358485e-01
      vertex 8.074952e+01 1.372596e+01 3.358485e-01
    endloop
  endfacet
  facet normal 6.123234e-17 2.449293e-16 -1.000000e+00
    outer loop
      vertex 7.632176e+01 4.721826e+00 3.358485e-01
      vertex 7.632176e+01 1.372596e+01 3.358485e-01
      vertex 8.074952e+01 4.721826e+00 3.358485e-01
    endloop
  endfacet
  facet normal -6.123234e-17 -2.449293e-16 1.000000e+00
    outer loop
      vertex 7.265779e+01 2.818848e+01 3.358485e-01
      vertex 7.632176e+01 1.950655e+01 3.358485e-01
      vertex 7.632176e+01 2.818848e+01 3.358485e-01
    endloop
  endfacet
  facet normal -6.123234e-17 -2.449293e-16 1.000000e+00
    outer loop
      vertex 7.265779e+01 2.818848e+01 3.358485e-01
      vertex 7.265779e+01 4.721826e+00 3.358485e-01
      vertex 7.632176e+01 1.950655e+01 3.358485e-01
    endloop
  endfacet
  facet normal -6.123234e-17 -2.449293e-16 1.000000e+00
    outer loop
      vertex 7.265779e+01 4.721826e+00 3.358485e-01
      vertex 7.632176e+01 1.372596e+01 3.358485e-01
      vertex 7.632176e+01 1.950655e+01 3.358485e-01
    endloop
  endfacet
  facet normal -6.123234e-17 -2.449293e-16 1.000000e+00
    outer loop
      vertex 7.265779e+01 4.721826e+00 3.358485e-01
      vertex 7.632176e+01 4.721826e+00 3.358485e-01
      vertex 7.632176e+01 1.372596e+01 3.358485e-01
    endloop
  endfacet
  facet normal -7.675445e-07 -2.449293e-16 1.000000e+00
    outer loop
      vertex 8.074952e+01 2.818848e+01 3.358485e-01
      vertex 8.074952e+01 1.950655e+01 3.358485e-01
      vertex 8.606742e+01 2.457257e+01 3.358526e-01
    endloop
  endfacet
  facet normal -7.675445e-07 -2.449293e-16 1.000000e+00
    outer loop
      vertex 8.606742e+01 2.457257e+01 3.358526e-01
      vertex 8.074952e+01 1.950655e+01 3.358485e-01
      vertex 8.606742e+01 8.800947e+00 3.358526e-01
    endloop
  endfacet
  facet normal -7.675445e-07 -2.449293e-16 1.000000e+00
    outer loop
      vertex 8.606742e+01 8.800947e+00 3.358526e-01
      vertex 8.074952e+01 1.950655e+01 3.358485e-01
      vertex 8.074952e+01 1.372596e+01 3.358485e-01
    endloop
  endfacet
  facet normal -7.675445e-07 -2.449293e-16 1.000000e+00
    outer loop
      vertex 8.074952e+01 4.721826e+00 3.358485e-01
      vertex 8.606742e+01 8.800947e+00 3.358526e-01
      vertex 8.074952e+01 1.372596e+01 3.358485e-01
    endloop
  endfacet
  facet normal -1.000000e+00 6.123234e-17 -6.123234e-17
    outer loop
      vertex 8.606742e+01 2.457257e+01 1.208724e+01
      vertex 8.606742e+01 2.457257e+01 3.358526e-01
      vertex 8.606742e+01 8.800947e+00 1.208724e+01
    endloop
  endfacet
  facet normal -1.000000e+00 6.123234e-17 -6.123234e-17
    outer loop
      vertex 8.606742e+01 2.457257e+01 3.358526e-01
      vertex 8.606742e+01 8.800947e+00 3.358526e-01
      vertex 8.606742e+01 8.800947e+00 1.208724e+01
    endloop
  endfacet
  facet normal 7.104331e-01 -2.158741e-16 7.037647e-01
    outer loop
      vertex 8.074952e+01 4.721826e+00 1.745553e+01
      vertex 8.606742e+01 8.800947e+00 1.208724e+01
      vertex 8.074952e+01 1.372596e+01 1.745553e+01
    endloop
  endfacet
  facet normal -7.104331e-01 2.158741e-16 -7.037647e-01
    outer loop
      vertex 8.606742e+01 2.457257e+01 1.208724e+01
      vertex 8.606742e+01 8.800947e+00 1.208724e+01
      vertex 8.074952e+01 1.372596e+01 1.745553e+01
    endloop
  endfacet
  facet normal -7.104331e-01 2.158741e-16 -7.037647e-01
    outer loop
      vertex 8.606742e+01 2.457257e+01 1.208724e+01
      vertex 8.074952e+01 1.372596e+01 1.745553e+01
      vertex 8.074952e+01 1.950655e+01 1.745553e+01
    endloop
  endfacet
  facet normal -7.104331e-01 2.158741e-16 -7.037647e-01
    outer loop
      vertex 8.074952e+01 2.818848e+01 1.745553e+01
      vertex 8.606742e+01 2.457257e+01 1.208724e+01
      vertex 8.074952e+01 1.950655e+01 1.745553e+01
    endloop
  endfacet
  facet normal 6.123234e-17 2.449293e-16 -1.000000e+00
    outer loop
      vertex 7.265779e+01 2.818848e+01 1.745553e+01
      vertex 7.632176e+01 2.818848e+01 1.745553e+01
      vertex 7.632176e+01 1.950655e+01 1.745553e+01
    endloop
  endfacet
  facet normal 6.123234e-17 2.449293e-16 -1.000000e+00
    outer loop
      vertex 7.265779e+01 2.818848e+01 1.745553e+01
      vertex 7.632176e+01 1.950655e+01 1.745553e+01
      vertex 7.632176e+01 1.372596e+01 1.745553e+01
    endloop
  endfacet
  facet normal -6.123234e-17 -2.449293e-16 1.000000e+00
    outer loop
      vertex 7.265779e+01 2.818848e+01 1.745553e+01
      vertex 7.265779e+01 4.721826e+00 1.745553e+01
      vertex 7.632176e+01 1.372596e+01 1.745553e+01
    endloop
  endfacet
  facet normal -6.123234e-17 -2.449293e-16 1.000000e+00
    outer loop
      vertex 7.265779e+01 4.721826e+00 1.745553e+01
      vertex 7.632176e+01 4.721826e+00 1.745553e+01
      vertex 7.632176e+01 1.372596e+01 1.745553e+01
    endloop
  endfacet
  facet normal 6.123234e-17 2.449293e-16 -1.000000e+00
    outer loop
      vertex 7.632176e+01 2.818848e+01 1.745553e+01
      vertex 8.074952e+01 1.950655e+01 1.745553e+01
      vertex 7.632176e+01 1.950655e+01 1.745553e+01
    endloop
  endfacet
  facet normal 6.123234e-17 2.449293e-16 -1.000000e+00
    outer loop
      vertex 7.632176e+01 2.818848e+01 1.745553e+01
      vertex 8.074952e+01 2.818848e+01 1.745553e+01
      vertex 8.074952e+01 1.950655e+01 1.745553e+01
    endloop
  endfacet
  facet normal -6.123234e-17 -2.449293e-16 1.000000e+00
    outer loop
      vertex 8.074952e+01 4.721826e+00 1.745553e+01
      vertex 8.074952e+01 1.372596e+01 1.745553e+01
      vertex 7.632176e+01 1.372596e+01 1.745553e+01
    endloop
  endfacet
  facet normal -6.123234e-17 -2.449293e-16 1.000000e+00
    outer loop
      vertex 7.632176e+01 4.721826e+00 1.745553e+01
      vertex 8.074952e+01 4.721826e+00 1.745553e+01
      vertex 7.632176e+01 1.372596e+01 1.745553e+01
    endloop
  endfacet
  facet normal -6.086254e-01 7.934577e-01 1.570735e-16
    outer loop
      vertex 8.074952e+01 4.721826e+00 3.358485e-01
      vertex 8.606742e+01 8.800947e+00 1.208724e+01
      vertex 8.606742e+01 8.800947e+00 3.358526e-01
    endloop
  endfacet
  facet normal 6.086254e-01 -7.934577e-01 -1.570735e-16
    outer loop
      vertex 8.074952e+01 4.721826e+00 1.745553e+01
      vertex 8.074952e+01 4.721826e+00 3.358485e-01
      vertex 8.606742e+01 8.800947e+00 1.208724e+01
    endloop
  endfacet
  facet normal -6.123234e-17 -1.000000e+00 -2.449293e-16
    outer loop
      vertex 7.632176e+01 4.721826e+00 3.358485e-01
      vertex 8.074952e+01 4.721826e+00 3.358485e-01
      vertex 8.074952e+01 4.721826e+00 1.745553e+01
    endloop
  endfacet
  facet normal -6.123234e-17 -1.000000e+00 -2.449293e-16
    outer loop
      vertex 7.632176e+01 4.721826e+00 3.358485e-01
      vertex 8.074952e+01 4.721826e+00 1.745553e+01
      vertex 7.632176e+01 4.721826e+00 1.745553e+01
    endloop
  endfacet
  facet normal -6.123234e-17 -1.000000e+00 -2.449293e-16
    outer loop
      vertex 7.265779e+01 4.721826e+00 3.358485e-01
      vertex 7.632176e+01 4.721826e+00 3.358485e-01
      vertex 7.632176e+01 4.721826e+00 1.745553e+01
    endloop
  endfacet
  facet normal -6.123234e-17 -1.000000e+00 -2.449293e-16
    outer loop
      vertex 7.265779e+01 4.721826e+00 3.358485e-01
      vertex 7.632176e+01 4.721826e+00 1.745553e+01
      vertex 7.265779e+01 4.721826e+00 1.745553e+01
    endloop
  endfacet
  facet normal -6.123234e-17 -1.000000e+00 -2.449293e-16
    outer loop
      vertex 7.265779e+01 2.818848e+01 1.745553e+01
      vertex 7.265779e+01 2.818848e+01 3.358485e-01
      vertex 7.632176e+01 2.818848e+01 1.745553e+01
    endloop
  endfacet
  facet normal -6.123234e-17 -1.000000e+00 -2.449293e-16
    outer loop
      vertex 7.265779e+01 2.818848e+01 3.358485e-01
      vertex 7.632176e+01 2.818848e+01 3.358485e-01
      vertex 7.632176e+01 2.818848e+01 1.745553e+01
    endloop
  endfacet
  facet normal -6.123234e-17 -1.000000e+00 -2.449293e-16
    outer loop
      vertex 7.632176e+01 2.818848e+01 1.745553e+01
      vertex 7.632176e+01 2.818848e+01 3.358485e-01
      vertex 8.074952e+01 2.818848e+01 1.745553e+01
    endloop
  endfacet
  facet normal -6.123234e-17 -1.000000e+00 -2.449293e-16
    outer loop
      vertex 7.632176e+01 2.818848e+01 3.358485e-01
      vertex 8.074952e+01 2.818848e+01 3.358485e-01
      vertex 8.074952e+01 2.818848e+01 1.745553e+01
    endloop
  endfacet
  facet normal -5.622824e-01 -8.269452e-01 -2.369730e-16
    outer loop
      vertex 8.074952e+01 2.818848e+01 3.358485e-01
      vertex 8.606742e+01 2.457257e+01 1.208724e+01
      vertex 8.074952e+01 2.818848e+01 1.745553e+01
    endloop
  endfacet
  facet normal -5.622824e-01 -8.269452e-01 -2.369730e-16
    outer loop
      vertex 8.074952e+01 2.818848e+01 3.358485e-01
      vertex 8.606742e+01 2.457257e+01 3.358526e-01
      vertex 8.606742e+01 2.457257e+01 1.208724e+01
    endloop
  endfacet
  facet normal 1.000000e+00 -6.123234e-17 6.123234e-17
    outer loop
      vertex 8.074952e+01 1.372596e+01 1.745553e+01
      vertex 8.074952e+01 1.372596e+01 3.358485e-01
      vertex 8.074952e+01 1.950655e+01 3.358485e-01
    endloop
  endfacet
  facet normal 1.000000e+00 -6.123234e-17 6.123234e-17
    outer loop
      vertex 8.074952e+01 1.372596e+01 1.745553e+01
      vertex 8.074952e+01 1.950655e+01 3.358485e-01
      vertex 8.074952e+01 1.950655e+01 1.745553e+01
    endloop
  endfacet
  facet normal -1.000000e+00 6.123234e-17 -6.123234e-17
    outer loop
      vertex 7.632176e+01 1.950655e+01 1.745553e+01
      vertex 7.632176e+01 1.950655e+01 3.358485e-01
      vertex 7.632176e+01 1.372596e+01 1.745553e+01
    endloop
  endfacet
  facet normal -1.000000e+00 6.123234e-17 -6.123234e-17
    outer loop
      vertex 7.632176e+01 1.372596e+01 1.745553e+01
      vertex 7.632176e+01 1.950655e+01 3.358485e-01
      vertex 7.632176e+01 1.372596e+01 3.358485e-01
    endloop
  endfacet
  facet normal -6.123234e-17 -1.000000e+00 -2.449293e-16
    outer loop
      vertex 8.074952e+01 1.372596e+01 1.745553e+01
      vertex 7.632176e+01 1.372596e+01 3.358485e-01
      vertex 8.074952e+01 1.372596e+01 3.358485e-01
    endloop
  endfacet
  facet normal -6.123234e-17 -1.000000e+00 -2.449293e-16
    outer loop
      vertex 8.074952e+01 1.372596e+01 1.745553e+01
      vertex 7.632176e+01 1.372596e+01 1.745553e+01
      vertex 7.632176e+01 1.372596e+01 3.358485e-01
    endloop
  endfacet
  facet normal 6.123234e-17 1.000000e+00 2.449293e-16
    outer loop
      vertex 8.074952e+01 1.950655e+01 1.745553e+01
      vertex 7.632176e+01 1.950655e+01 3.358485e-01
      vertex 7.632176e+01 1.950655e+01 1.745553e+01
    endloop
  endfacet
  facet normal 6.123234e-17 1.000000e+00 2.449293e-16
    outer loop
      vertex 8.074952e+01 1.950655e+01 1.745553e+01
      vertex 8.074952e+01 1.950655e+01 3.358485e-01
      vertex 7.632176e+01 1.950655e+01 3.358485e-01
    endloop
  endfacet
endsolid Default
